/* XPM */
static char *f08836c9a7ff4a80b0dbe498ce6cc0d0q0vCmb0Yb1yvUhtC[] = {
/* columns rows colors chars-per-pixel */
"64 64 248 2 ",
"   c #090B15",
".  c #0A0D1A",
"X  c #050A17",
"o  c #0D101D",
"O  c #110A0A",
"+  c #28170F",
"@  c #37271C",
"#  c #0C1223",
"$  c #0B1629",
"%  c #151A2B",
"&  c #141727",
"*  c #0F172B",
"=  c #1D2237",
"-  c #162834",
";  c #362B28",
":  c #23273B",
">  c #3A3332",
",  c #383228",
"<  c #472A19",
"1  c #4F311B",
"2  c #46382A",
"3  c #553B2A",
"4  c #473A33",
"5  c #513B33",
"6  c #683C29",
"7  c #494134",
"8  c #584737",
"9  c #584630",
"0  c #67452D",
"q  c #684A37",
"w  c #754A36",
"e  c #68523D",
"r  c #75543D",
"t  c #7B553A",
"y  c #72442A",
"u  c #16324A",
"i  c #262C45",
"p  c #2C324B",
"a  c #2E3552",
"s  c #343A58",
"d  c #1B425E",
"f  c #1D4A68",
"g  c #3C4263",
"h  c #2C5274",
"j  c #3A546B",
"k  c #555959",
"l  c #504D49",
"z  c #675748",
"x  c #745A44",
"c  c #795A45",
"v  c #65514B",
"b  c #7B624B",
"n  c #786857",
"m  c #6D6253",
"M  c #4C5272",
"N  c #566873",
"B  c #77757B",
"V  c #6B6A74",
"C  c #443E4E",
"Z  c #85583C",
"A  c #8C5037",
"S  c #B55236",
"D  c #90613F",
"F  c #835C43",
"G  c #8B5D45",
"H  c #875946",
"J  c #935C4A",
"K  c #8C6245",
"L  c #8B644B",
"P  c #86654A",
"I  c #93654C",
"U  c #956A4D",
"Y  c #9B6B4C",
"T  c #966545",
"R  c #876A54",
"E  c #946C54",
"W  c #9A6D53",
"Q  c #986C59",
"!  c #9D7153",
"~  c #98745A",
"^  c #8C725B",
"/  c #A66A4A",
"(  c #A8724D",
")  c #A46D52",
"_  c #A37454",
"`  c #A4755C",
"'  c #A47A5B",
"]  c #AC7C5C",
"[  c #AA7656",
"{  c #B37C5B",
"}  c #B87A57",
"|  c #B76C4E",
" . c #897767",
".. c #987B65",
"X. c #867A73",
"o. c #A37C63",
"O. c #AA7C63",
"+. c #A87C68",
"@. c #B67E62",
"#. c #A17F71",
"$. c #A05C40",
"%. c #C37154",
"&. c #C97D61",
"*. c #97311C",
"=. c #B4825E",
"-. c #BB825D",
";. c #AF815F",
":. c #97816D",
">. c #9B8C7C",
",. c #958676",
"<. c #8F8578",
"1. c #AD8263",
"2. c #AC846A",
"3. c #A78469",
"4. c #B38463",
"5. c #BC8463",
"6. c #BC8A65",
"7. c #B4856B",
"8. c #BC8C6B",
"9. c #B8886A",
"0. c #A78A76",
"q. c #B88C74",
"w. c #BA9479",
"e. c #B19176",
"r. c #C3855F",
"t. c #C38564",
"y. c #C38A66",
"u. c #C38C6B",
"i. c #CA8C6A",
"p. c #C98967",
"a. c #C4926D",
"s. c #CA936D",
"d. c #CD996E",
"f. c #D1966E",
"g. c #C48E72",
"h. c #CD8E70",
"j. c #C59372",
"k. c #CB9473",
"l. c #CB9A74",
"z. c #CD9C7B",
"x. c #C6977A",
"c. c #D29C74",
"v. c #D29C7B",
"b. c #D29573",
"n. c #D4A37C",
"m. c #D9A47B",
"M. c #CEA07B",
"N. c #347B99",
"B. c #2E6C8B",
"V. c #347EA1",
"C. c #505884",
"Z. c #5D6486",
"A. c #5E6894",
"S. c #676C86",
"D. c #6E7284",
"F. c #797986",
"G. c #6D7598",
"H. c #3887A6",
"J. c #658A93",
"K. c #4F99B2",
"L. c #7C86A5",
"P. c #6699AA",
"I. c #5AA3BA",
"U. c #6CA5B3",
"Y. c #598A97",
"T. c #57BBD9",
"R. c #4FA9C6",
"E. c #63BAD4",
"W. c #6CB5CB",
"Q. c #64C1DD",
"!. c #71C1DA",
"~. c #5DC5E4",
"^. c #68CAE6",
"/. c #78D3ED",
"(. c #7CD8F2",
"). c #76CCE5",
"_. c #878789",
"`. c #958E86",
"'. c #999289",
"]. c #9A9793",
"[. c #858699",
"{. c #A59A8B",
"}. c #AB9D8D",
"|. c #A49585",
" X c #B89A86",
".X c #A49C92",
"XX c #ADA394",
"oX c #AAA59A",
"OX c #B2A595",
"+X c #B4AB9C",
"@X c #B7AC9B",
"#X c #B9B09F",
"$X c #B5A18D",
"%X c #B5AEA1",
"&X c #B8AFA1",
"*X c #BCB3A2",
"=X c #B9B2A5",
"-X c #ACABB2",
";X c #9DA2AF",
":X c #C89D83",
">X c #D69E81",
",X c #CCA388",
"<X c #D3A383",
"1X c #DBAB84",
"2X c #DBAC8B",
"3X c #D7A888",
"4X c #CBAD96",
"5X c #D4AC93",
"6X c #DAAD92",
"7X c #D9B397",
"8X c #DDB28A",
"9X c #E2AD89",
"0X c #E4B28D",
"qX c #E7B998",
"wX c #E0AE90",
"eX c #C1B7A5",
"rX c #C3B9A7",
"tX c #C6BBA9",
"yX c #C9BEAC",
"uX c #D8BCA5",
"iX c #CABDB5",
"pX c #E5BCA2",
"aX c #EFC29F",
"sX c #CDC0AF",
"dX c #CEC2B1",
"fX c #D3C5B3",
"gX c #DCCCBB",
"hX c #D7C7B8",
"jX c #D7C5B1",
"kX c #EAC5A9",
"lX c #E7CDB8",
"zX c #F7D6BA",
"xX c #EFCCB0",
"cX c #B0B2C8",
"vX c #87DDF5",
"bX c #87D6ED",
"nX c #8DE1F8",
"mX c #96E4F9",
"MX c #BCC1D9",
"NX c #C9C6CD",
"BX c #E4D2C2",
"VX c #F8DDC6",
"CX c #FCE3CB",
"ZX c #F7E7D6",
"AX c #CED3E6",
"SX c #E6E9F8",
"DX c #F3F1F1",
"FX c #DEE4F4",
/* pixels */
"yXyXyXtXtXtXyXtXtXyXyXsXsXdXjXhXgXgXgXgXgXgXgXBXBXBXBXBXBXBXBXBXhXfXgXsXyXOX0.:.:.e.rXjXzXCXCXCXCXCXzXzXaXaXm.8X8X8X8X7XrXuXsXsX",
"sXyXyXyXtXyXtXyXyXyXsXsXsXdXfXjXhXgXgXgXBXlXBXBXBXBXNXhXdX*XiX*XoX{.@X}.{.>.<.:.>.w.8XkXzXVXCXCXCXzXaXaXaXm.m.m.M.M.n.n.8XuXuXjX",
"sXyXyXyXyXtXtXyXyXsXsXsXsXfXhXhXhXgXgXgXgXgXBXBXgXsXrX*X=X.X+X*X>.'.XX].'.'.:.,.XX>.w.uXxXVXCXCXzXaX0X0Xm.m.m.m.n.c.c.n.8X7X8XuX",
"dXyXyXyXyXyXyXtXyXyXsXsXfXfXjXhXgXgXgXgXgXBXgXfXdXXX{.>.,.|.{.{.'.,.,.|.}.{.>.`.{.>.#X#Xw.jXzXzXzXaX8Xm.m.m.c.c.d.c.d.d.M.n.8X7X",
"yXyXyXtXyXyXyXyXsXsXsXsXsXsXfXfXhXhXgXlXgXfXyXXX{.:.,.$X X}.XX|.X. .n <.,.>.>.>.,.>.e.>.}.OX}.uXaXaXn.n.n.d.d.d.d.d.d.d.a.l.M.8X",
"yXyXyXtXtXtXtXtX*XrXsXsXsXfXfXfXhXhXjXhXeXOX}.,.0.4XjXBXsX$X$X>. .:.,.^  .^ n  .:.>.>.>.>.'.e.{.M.m.8Xn.M.d.d.d.d.d.p.d.d.d.M.M.",
"yXyXtXtXtXrXtXtXsXrXsXsXsXsXfXfXfXfXjXrX}.{.,.e.5XlXlXBXuX|.0.,.n ^ R n R n n ^ :.:.:.:.:. .:.,.>.e.,XM.d.d.a.a.r.p.a.y.d.l.M.M.",
"yXtXtXtXrXtXrXrXrXrX*XsXsXsXsXsXjXfX#X}.#X$X,XaXkXzXCXkX7Xe.~ R R n m b x x x R n b P n b :.:.n  .<.>.l.l.a.a.y.s.r.a.a.d.M.n.3X",
"tXrXrXrXrXrXrXrXrXsXsXsXrXsXsXsXsX*X,.,.>.,XqXkXzXZXVXkX7X3.~ R b m b x r r x P b r P b x U :.R n  .:.:.8.a.a.a.y.y.a.d.l.M.<X3X",
"rXrXeXrX*XrX*XeXrX#X#XsXsXrXrXsXrX>.:.:.e.8XaXxXZXZXVXuX7Xw.~ ^ r x b e e b b b r r b t P U ;.3.b z n X...8.8.8.6.s.a.j.M.<X3X2X",
"rX*XrX*X*XrXeXeX*XsX#XsXrXsXsXrX}.,.'.e.7XaXaXVXZXDXzXqX<X6.2.E P P P q r P K P K K Z D ( ( ;.3.^ e 8 z z ~ 8.8.6.a.a.x.z.<X3X6X",
"rX*X*XeX*X*XeX*XrX*XsX#XrXrXsX#X<.|.0.x.qXaXzXCXDXZXxX0XM.8.=.W P ^ P P P U K D K T Y ( ;.=.;.6.;.R 7 8 m n 8.8.a.a.d.l.z.>X3X2X",
"*XeX*X*XeX*XeXeXeXeXrXrXrXrXrX{.,.|.e.n.qXqXxXZXZXZXzX1Xk.u.-.' 1.~ L U ~ U T Y / ( ( } -.-.6.8.e.3.2 @ 7 z ..8.8.8.8.g.w.z.<X3X",
"*X*X*X*X#X*X*X*X*X*XeX*X#XsX#X,.,.0.w.m.0XqXkXZXDXZXlX<Xc.s.6.4.;.1.Y ~ ~ Y / ( ( ( | -.-.r.6.8.w.4.9 , 7 z m 3.7.2.2.7.9.q.x.,X",
"#X#X#X*X*X*XeX#X*XeXrXrXrX#X}.n |.w.m.m.0X0XkXVXZXCXkXM.b.c.u.8.4.;.[ ;.4.[ ( ( } ( r.-.r.y.d.a.6.;.0 7 4 z n ^ o.~ ~ ~ ~ o.2.q.",
"#XeX#X#X#X*X#X*X*X*X#XrX#X#X<.<.e.k.m.9X0X0XpXBXVXBXqXn.k.k.u.u.6.;.;.6.8.-.{ -.-.-.r.r.r.d.d.d.a.;.t 3 7 m n n ~ R R R L L ` 4.",
"#X#X#X#X#X#X#X#X*X*X*X*X*X*Xb ,.w.n.m.m.aX0X8XqXpXqX6X>Xk.a.u.u.@.9.g.j.y.t.t.t.t.t.p.&.g.:X>X>Xd.6.K 9 , 8 m n b b c r t c G _ ",
"+X+X@X#X#X#XeX#X#X#X*X*X*X+Xz :.l.m.m.m.0Xm.8X8X3X<X>Xl.i.u.u.y.8.q.j.g.j.k.k.k.k.h.h.:X:X5X5X5Xl.8.D 9 7 7 n n x c r c t t G Y ",
"+X+X+X@X#X#X#X#X*X=X=X*X*X'.b :.d.c.m.9XqX0X<Xl.y.t.} -.y.u.u.g.u.k.g.i.k.k.z.k.l.x.>X5XuXpX7X5Xl.d._ t e 8 n n n t t F H F K Y ",
"+XOXOX@X#X#X#X#X#X#X=X#X=X'.b 3.d.c.m.m.6X2X2X<Xv.k.p.r.t.{ &.6.u.u.u.u.t.u.t.g.k.x.>X,X7XuXuX5XM.w.;.P e z m <.^ K P L I I U ) ",
"OXOXOX+X+X#X#X#X#X=X#X=X#X'.n w.n.f.1X1X0XwX1X3Xv.i.p.t.r.%.} r.r.t.t.y.t.u.u.g.h.g.x.v.3X5X7X5X,Xx.4.! r e n <...Q ` +.` ` _ [ ",
"OXOXOX+X+X+X#X#X#X=X#X+X+X,.^ w.n.m.c.n.3X6XwX<Xs.r.p.p.r.} } } t.t.r.t.} t.5.t.t.t.p.k.k.:X3X5X,X,Xx.2.L e n <.0.@.@.7.9.4.@.] ",
"XXXXOX+X+X+X@X#X+X*X#X=X+X>...w.d.d.c.n.n.3X2Xc.c.b.f.f.f.p.s.i.p.r.r.} 5.5.t.u.t.} &.5.t.j.3X,X5X4Xz.8.U n x n #.g.g.g.g.9.@.O.",
"XXXXOXOXOX+X+X+X#X=X+X=X+X,...w.l.d.c.d.c.<X2X3Xc.h.i.i.c.f.h.b.f.f.i.p.t.&.p.p.p.i.u.u.k.k.>X:X5X5Xj.;.~ ^ n m #.:Xk.x.g.9.@.] ",
"}.XXOXOX+X+X#X#X#X#X#X%XoX<...w.d.c.c.k.s.M.5X<Xl.u.u.i.v.c.h.f.p.i.b.f.p.r.r.r.t.t.t.i.k.z.z.>X5X<Xy.{ E  .n n +.g.x.x.h.@.@.` ",
"}.}.OXOXoX+X+X#X#X%X#X#XiX{.e.M.c.d.u.y.' E c ..w.u.u.l.<Xs.s.i.t.h.c.b.p.p.p.p.t.t.p.h.h.k.z.z.k.k.} ( P x z n +.g.j.j.u.@.) ) ",
"{.oXXXOX+X+X%X%X#X#X%XeXlX4Xw.M.d.6.] U P q 2 9 P o.9.x.6.5.a.r.-.s.k.i.h.p.%.r.&.5.y.i.k.h.k.k.j.s.-.[ F z z n +.g.g.g.9.{ ) J ",
"{.e.XXXXoX+X+X%X#X#X@X} z.4Xx.z.a.[ F w w 0 @ + + , q c D T ;.} ( 6.5.{ @.@.{ { { { 9.y.j.g.x.j.u.y.-.( F e n  .O.u.g.g.9.] W J ",
">.}.XXXXXX+X%X%X%X%X@XS | 4XM.l.6.' t y K ;.E e 2 + + + < 6 D T T Y A A ` ` ) I G _ @.9.x.l.j.k.a.5.} ) c z n  .1.8.j.8.9.` E G ",
">.{.{..XoX+X+X%X%X%X@X%.| $Xz.v.6.U t 0 t n b x q 1 < + + < Z D D A 1 1 ; 3 5 < 2 q c E o.4.5.8.8.y.=.[ x n n ..7.8.w.8.@.o.Q R ",
">.>.XXoXXX+X+X+X%X%X+XS &. Xh.c.a.4.U w 0 3 O @ z w 6 6 < 1 A ( / Z < O O O + + @ 3 t c c J [ ] 6.a.-._ m n n ;.1.9.8.2.1.~ E R ",
"{.{.{.XXoX+X+X+X%X%X+X} &. Xg.l.n.j.e.1.2...2 z ,._ A 6 y y ( ( ( A 1 + O + + 3 w w L H w t U _ 5.a.=.! n n :.:.3.3.2.2.~ E R L ",
">.'.'.{.oXoX+X%X%X%X%X X( 3.a.l.m.9XwX2X:X` J J J J J P D T } } r.T y y < + O + 2 6 J J J P G _ 5.u.4.' {.0. X,X:X+...~ ~ R L L ",
"<.>.'.].oXoXoXoX%X%XoXOXw.$Xl.n.0XqXpXqX>Xw.Q J K K I W ! =.t.} r.( t t 6 3 @ 8 v 5 6 c t c U ] u.8.] +.{.w.h.@.t...~ ^ ^ P P P ",
"<._.'.].]..XoXoXoX%X+XOX4X5Xn.m.0XqXpXqX2Xk.g.+.Q I 1.5.6.<Xu.} d.-.Y Z w 6 y J J / +.o.H L [ 4.u.t.[ 3. Xx.| *.S Q R b b P P K ",
"B <.<.'.]..XoXoXoX%X%X+X4X5X8Xn.9X0X0XwX>Xg.@.@.7.>Xz.u.s.6Xu.5.a.5.u.[ A H J J I O.x.w.1.O.6.8.6.-.' ,.x.g.&.S $.b x b x b P U ",
"X.<.J.>.].].].oXoXoXoX%X4X8XaXm.m.n.z.c.b.p.>XwXqX>Xh.u.<X7Xk.j.g.u.>Xg.5.I I Q o.O.O.j.M.w.a.d.6.{ ~ ..O.b.&.| ;.e 8 e e b b U ",
"B B <._.`.].].oXoXoXoX&X8X8X8XM.s.s.6.5.h.b.wXwX9Xp.[ t.6X<Xi.g.g.g.g.k.x.&.{ ` @.u.j.v.<X<XM.a.=.[  .o./ p.&.%.K 7 9 9 8 e b b ",
"B B J.<._._.].]..XoXoXuXn.m.m.n.a.6.-.y.b.>XwX>Xi.| $.g.pXh.t.u.g.g.| g.b.x.p.&.t.k.l.M.1X1Xl.a.=.' ..1.| p.%.` 9 7 7 7 8 z x b ",
"V B X.J._._.].]..X.X.X5Xl.c.y.d.5.{ =.a.>X>X>X&.| / v.3XqXu.t.u.g.@./ / p.h.h.&.r.i.a.j.j.l.6.-.6.' 0.=.i.f.@.q 2 2 , 2 7 7 e z ",
"V V B F.F._._.'.]..X.Xw.u.a.6.a.6.;.5.u.b.h.t.| A u.pXwX>X:Xx.g.k.@.@.A } &.h.&.&.&.9.5.6.a.-.6.;.;.:.d.d.6.e 2 7 2 , , 2 7 7 9 ",
"M V D.D.F._._.`.]..X.Xq.5.6.6.d.a.5.u.u.k.y.} / A A 9.v.@.7.g.9.x.:Xh.A $.@.h.h.g.p.5.5.6.-.a.d.6.;.w.d.d.^ 7 7 7 2 7 7 2 7 7 7 ",
"N Z.S.D.F.F._.[.].].].q.] ;.6.w.n.M.l.j.y.&.) / o.Q H I ) E ) [ ) H / A $.| @.i.i.t.-.-.=.a.l.s.6.;.m.8X$XN N N N k N k l 7 7 7 ",
"C.M N S.D.F._._._.].'.q.' ! 6.d.n.8X<Xz.z.@.) 7.,X5X,X+.6 6 F E Q H ) $.A / } } t.t.} =.6.d.l.d.6.;.8X8XU.I.U.K.K.P.Y.Y.N j 7 7 ",
"C.M C.V S.D.F._.[.'.].0.:.;.6.l.v.2X9X3Xk.@.y.5XuX6X6X5XQ c J #.w.x.,X;.T / { } 5.t.5.5.y.a.s.a.;.;.8X4XW.E.E.E.E.E.E.U.K.k l l ",
"g M M Z.S.D.F._._.`.].X.Y ;.8.M.n.2X2X3Xv.9.,XpXpX5X5X,X:X#. X Xx.:Xz.x._ _ @.y.p.u.u.y.u.u.a.6.;.6.M.;X~.~.Q.^.Q.^.E.E.I.J.k l ",
"M C.M Z.Z.S.D.F._.`.V k U ;.1.8.l.<XwX1X8.8.7X5X4X:X:X:X#.#.:X:X Xx.j.x.x.{ { y.u.j.l.j.5.} 5.=.:.N H.R.T.~.~.^.^.^.^.^.I.Y.k 7 ",
"g h C.M Z.S.F.F._.J.j C R ~ 2.8.s.v.2Xk.4.q.:Xw.q.+.+.+.#.&.:X@.w.:X:X:Xz.8.5.6.g.k.l.j.@.{ =.] P f H.R.T.~.~.~.~.^.^.Q.W.K.k l ",
"C.C.C.C.Z.S.S.F.F.M a i v Q +.q.8.M.s.a.j.7.K c F w w 6 6 H 6 J ~ 2.w.w.x.l.j.5.8.l.l.a.y.=.{ _ l f H.K.T.~.~.~.~.^.^.^.!.J.k > ",
"C.C.C.C.Z.S.D.B V s p : C J O.q.8.8.8.M.8.! P ..2.0.+.Q H H H w w t U 2.w.w.s.l.a.d.a.a.5.=.' I - f H.R.T.~.~.~.^.^.^.^.W.P.k , ",
"A.A.C.A.S.S.S.Z.g a i = : V E 4.7.;.8.4.! _ M.z.8.4.q.+.+.@.q.q.q.q.3.t ! 8.l.M.z.k.8.6.5.;.Q v $ d H.R.^.^.^./.(.(.(./.Q.P.N , ",
"A.A.A.A.G.S.Z.g g i i & % M 0.~ ;.' ;._ U ;.6.5._ U F r x F Q O.4.q.x.8.~ ;.d.l.s.a.6.5.4.' Q 8 $ d H.I.^./.(.(.(.(.(.(.!.I.k - ",
"A.G.G.G.G.Z.M s p : : % % & NX3.~ ! U K K [ Y T D w 0 3 3 6 0 t ! ] 8.8.~ ;.=.8.6.4.4.] ` W ` < o d H.K.^.(.bXvXvXvXnX(.!.I.N - ",
"G.G.G.L.A.M g a i = : & & . B NXR t q y G K T J A t K U K K F t I _ ' 9.1.T _ =.4.=.4._ W ) Q &   - H.R.^.(.nXmXnXnXnXvX).I.B.u ",
"L.L.L.L.M s a i : % % % & o o -X@Xr 9 9 r Z Y Y T 1.2.` ) o.+.! I ` _ ` ;.K Z ! [ ] 1.1.+.O.R O   $ h K.Q./.vXmXmXmXmXnX).E.N.f ",
"L.L.L.G.g s i : = % & & o o   k FX{.9 1 2 t I K U ! U L Q L Q ` _ O.] ' _ U t K W ' 7.w.q.@.v     X d h K.Q./.nXmXmXmXnX/.E.H.H.",
"L.L.A.M a i : % % & & .       & NXSXm ; + 5 G F H H w H J H L Q Y ) ` ! W P t b K ! 2.:Xw.9.> X X # $ f H.K.~./.nXmXmXmX(.Q.R.K.",
"Z.M a s s i = & % # % # o &     V SXSX].@ ; 5 6 6 3 3 3 6 v v H U I ! U L r 9 3 q c E q.:X:X= . X X $ $ d H.K.~./.nXnXmXnX/.T.T.",
"s s g s p i = & % & # #   .     C cXSXFX[.4 ; 2 2 ; ; 2 4 4 5 6 c F L U ~ ~ K r q q H o.7.@.p * # # # $ $ f H.R.Q.(.nXnXnX/.T.~.",
"g g g a i = % % % # # o . # .   i cXSXSXFX-Xl ; ; > : > > 2 ; @ 5 q z H ~ ! [ _ U L H J Q  .% = # # # X # u f H.R.^.(.nXnX(.^./.",
"a p a p = = % . #   . .   .     & D.AXSXAXAXMX[.l > ; ; i 5 4 4 3 8 x J U ! Y ! ` O.O.@. X.X  = u $ # X . $ d B.K.Q./.nXmXvX(./.",
"s a u = = = o   o . o o   . o .   p MXFXFXAXAXMXcXZ.l 4 4 5 5 5 8 q e F F K K U Q +.+.+.gX-XX o a p * # X X $ f H.R.).nXmXnXbXbX",
"a i i = % %           .     . . o . G.AXFXSXSXSXSXMX;XG.C 8 5 5 5 q e c P P P R Q Q #.hXDX-X  X = s s i $ X o - f K.W.bXmXmXbX/.",
"a p i % # = .   O     . . . o o o . i ;XFXSXSXDXSXSXFXAXcXF.k l l v v x c P ~ o.+.+.NXDXDX-XX X * i i M s -     d H.U.bXmXmXbX)."
};
