/* XPM */
static char *_a2f5a2502684030ba8e934cf00736a7y5NSr64cZcaDpPEx[] = {
/* columns rows colors chars-per-pixel */
"64 64 256 2 ",
"   c #1A0B06",
".  c #150C0A",
"X  c #190D0C",
"o  c #130905",
"O  c #1C110D",
"+  c #151009",
"@  c #1D1311",
"#  c #1C1815",
"$  c #170C0E",
"%  c #240E07",
"&  c #24150D",
"*  c #2C1C15",
"=  c #241B1A",
"-  c #2C1E1B",
";  c #241713",
":  c #331D14",
">  c #30150C",
",  c #2E211B",
"<  c #2E2117",
"1  c #32231C",
"2  c #3B2518",
"3  c #2D2321",
"4  c #2E2A25",
"5  c #332524",
"6  c #3B2C24",
"7  c #3B2D2B",
"8  c #362A27",
"9  c #3E312B",
"0  c #3C3026",
"q  c #3C3231",
"w  c #3F2F30",
"e  c #2D1E21",
"r  c #451D0F",
"t  c #482818",
"y  c #542A18",
"u  c #59341D",
"i  c #502B14",
"p  c #67381D",
"a  c #472D24",
"s  c #43342D",
"d  c #4A3429",
"f  c #5C3A22",
"g  c #573826",
"h  c #443532",
"j  c #463933",
"k  c #4C3C34",
"l  c #4C3D3B",
"z  c #403B38",
"x  c #563C35",
"c  c #683C25",
"v  c #62342A",
"b  c #4E4139",
"n  c #52433B",
"m  c #59453A",
"M  c #54422E",
"N  c #64422C",
"B  c #6A442B",
"V  c #684427",
"C  c #76472A",
"Z  c #694935",
"A  c #744C34",
"S  c #794D36",
"D  c #75523B",
"F  c #7C553B",
"G  c #7B5A3D",
"H  c #775235",
"J  c #6F5038",
"K  c #66421E",
"L  c #4E4240",
"P  c #584945",
"I  c #5E5351",
"U  c #665447",
"Y  c #7C5A43",
"T  c #785846",
"R  c #685A56",
"E  c #6B544B",
"W  c #79665B",
"Q  c #78624F",
"!  c #7A6C68",
"~  c #766B6B",
"^  c #834C2C",
"/  c #854C35",
"(  c #83563A",
")  c #8B5C3C",
"_  c #865637",
"`  c #945C3C",
"'  c #955839",
"]  c #8C512F",
"[  c #8C613D",
"{  c #95623B",
"}  c #835D43",
"|  c #8A5D43",
" . c #875B48",
".. c #965B45",
"X. c #854E49",
"o. c #846146",
"O. c #8C6344",
"+. c #85634A",
"@. c #8A644B",
"#. c #8C6A4D",
"$. c #946444",
"%. c #9B6344",
"&. c #956C4C",
"*. c #9B6C4B",
"=. c #966749",
"-. c #9C714D",
";. c #97744E",
":. c #8C6B53",
">. c #886755",
",. c #936D53",
"<. c #996C54",
"1. c #947155",
"2. c #9C7353",
"3. c #957359",
"4. c #9B755A",
"5. c #9B7A5D",
"6. c #997959",
"7. c #8E7259",
"8. c #A56A4B",
"9. c #A46748",
"0. c #A5724E",
"q. c #A46C54",
"w. c #A27553",
"e. c #A47955",
"r. c #A4755A",
"t. c #A47B5B",
"y. c #AA7D5B",
"u. c #AC7655",
"i. c #B37C5D",
"p. c #B47856",
"a. c #B2794E",
"s. c #897667",
"d. c #9D7C62",
"f. c #987865",
"g. c #867A73",
"h. c #966C67",
"j. c #A37C63",
"k. c #A77A65",
"l. c #B37C63",
"z. c #B5766C",
"x. c #AC825E",
"c. c #A6825E",
"v. c #B5825B",
"b. c #B9845D",
"n. c #B3895E",
"m. c #998679",
"M. c #95816E",
"N. c #A38265",
"B. c #AD8363",
"V. c #A4856B",
"C. c #AB846A",
"Z. c #AB896E",
"A. c #A88969",
"S. c #B48463",
"D. c #BA8662",
"F. c #B48A65",
"G. c #BC8A64",
"H. c #B48569",
"J. c #B48B6B",
"K. c #BB8C6B",
"L. c #B9856C",
"P. c #BD916D",
"I. c #B19067",
"U. c #AC8C72",
"Y. c #A78A74",
"T. c #B78D74",
"R. c #AC927B",
"E. c #AE9274",
"W. c #B49174",
"Q. c #BC9273",
"!. c #B3947B",
"~. c #BD9A7C",
"^. c #BB957A",
"/. c #C08D6A",
"(. c #C1926D",
"). c #C29473",
"_. c #C3957B",
"`. c #C59B7C",
"'. c #C89B7B",
"]. c #C48B76",
"[. c #C6A07F",
"{. c #9D928A",
"}. c #AA9888",
"|. c #B59B83",
" X c #BB9C82",
".X c #B99987",
"XX c #AB978F",
"oX c #BBA38A",
"OX c #AAA198",
"+X c #BBA795",
"@X c #B9ADA6",
"#X c #BCB2AC",
"$X c #C59D83",
"%X c #CA9D82",
"&X c #C79587",
"*X c #C5A285",
"=X c #CAA285",
"-X c #C5A38B",
";X c #CBA48B",
":X c #CCA98E",
">X c #C5AA8D",
",X c #D1A68D",
"<X c #C5AB94",
"1X c #CDAC93",
"2X c #CCAD9A",
"3X c #C6A794",
"4X c #D2AD94",
"5X c #D2AE9A",
"6X c #D1A791",
"7X c #CCB29C",
"8X c #C8B198",
"9X c #D2B196",
"0X c #D4B39C",
"qX c #D9B69D",
"wX c #CFB18F",
"eX c #CCB4A4",
"rX c #C9B8A7",
"tX c #D5B5A1",
"yX c #D5BBA4",
"uX c #DABBA5",
"iX c #D3BCAC",
"pX c #DBBDAA",
"aX c #D9B6A4",
"sX c #C8BCB5",
"dX c #D4BEB1",
"fX c #E5B8B0",
"gX c #DCC1AC",
"hX c #D9C3A9",
"jX c #CCC2B9",
"kX c #D3C3B4",
"lX c #DDC3B3",
"zX c #DAC9BB",
"xX c #E4CBB8",
"cX c #E8D1BC",
"vX c #E2C3AE",
"bX c #CABFC3",
"nX c #DBCDC3",
"mX c #D6CCC4",
"MX c #DCD4CA",
"NX c #DBD2C9",
"BX c #CFCBC6",
"VX c #E7CDC3",
"CX c #E3D3C4",
"ZX c #E3D6CB",
"AX c #EBDACD",
"SX c #E8D6CA",
"DX c #ECDDD3",
"FX c #E4DCD4",
"GX c #F3DDD4",
"HX c #F1D4C7",
"JX c #EBE4D9",
"KX c #F6E6DB",
"LX c #F8EDE5",
"PX c #FAF4EB",
"IX c #F9F8F3",
"UX c #EDE5E3",
/* pixels */
"g.P n b b b b x k k 0 0 1 1 < , 1 * < < * * * 1 E l OXsXDXrX3X.X2XJXJXFXMXFXOXJ Q f.D J D s.t >.N u [ 2.,.<   + + O & X X   X X ",
"~ n n L b b k b k k 2 6 1 1 , 1 1 < < 1 * * j 6 j M.sXzX2XR.>.g m.sXPXMXFXjXzXXXM +.6.+.N Y d.V o.G V e.e.Z ; O +   +   X X $ $ ",
"~ l n n M b b k k k 2 8 1 1 1 1 1 1 1 1 * 1 > < {.NXZXeXR.@.t d m.dXUXFXjXkXsXjXXXZ Y >.Y Y ,.d.H O.;.) x.5.2 & O   + O O X X X ",
"! l m n k b b k k k 6 1 1 , 1 1 1 1 1 j * 6 1 g.FXLXZX2Xd.Z > XXAX@XFXFXkXjXR.rXrX+XY H H } 1.5.;.o.1.y.x.B.Y   O O O X X @ X X ",
"! b n b b b b k k s 8 8 1 , , 1 1 , 1 1 8 q P UXUXUXkXj.f 2 d sXMXzXhXzXcXhX+Xc.<X|.oXo.,.} 1.[ I.;.-.x.v.y.V.2 X O O   O O X X ",
"! q n k k k k k k s 8 8 1 1 1 < , , 1 1 0 R NXFXIXFXdXR.D t T nXJXMX@XrXzX#X8XoX3.!.|.R.*.2.&.N.;.E.;.c.F.-.x.:.& X @ O + X X $ ",
"~ q b k k k k k s s 8 1 1 , 1 , , , b 8 P {.bXIXIXZXeX .i T +XdXMXJXzX~.8XrX+X|.N.o.Z.!.C.*.e.t.B.;.F.t.-.S.x.B.> X X X X X X $ ",
"I 7 z s s s s s s s 8 , 1 * < < < < j , R OXIXIXLXzX.XS j.5XaXiXkXzXJXxX!.+XoX8XR.j.C C. XB.O.e.6.c.=.F.y.F.*.B. .& O X X X X X ",
"R q b n n b k s s s 8 , 1 1 1 , , , 0 1 zXOXIXIXLXrX!.} 2XxXxXzXhXiXdXKXhX1X:X!.U.j.( F j.^.r.-.c.j.B.e.x.2.c.c.V.O . O X X X . ",
"I q L L b k s s s s 7 5 5 1 1 , , , 1 R ~ BXIXIXPXcX3X@.vXHXSXVXcXkXtXeXGX3X-X.X8XW.k. .} 2.H.2.&.J.e.B.y.y.S.[ A.J . O X X X X ",
"I l b b b j s s s s 0 - 5 5 , , , 1 , XXM.UXIXIXPXCX3XZ.xXAXDXSXVXzXyXtXeXAX-XT.Z.$Xr.@.=.;._ t.2.6.J.x.c.y.w.x.N.N.O O X X X X ",
"I L L b k s s s s s 8 3 e , , , , 1 l Q OXNXIXUXLXxX-X;XcXAXDXSXVXxXpX0X;XiXpX-X!.-X!.j.,.O.;.( 5.x.2.J.F.e.=.F.;.x.: O X X X X ",
"P L L l k h s 9 9 7 7 , , , < < s 1 ! R BXUXPXLXLXzX.X:XVXGXGXSXVXxXpXtX&X3.R.;Xk.O.U.2.A 2.| &.[ e.x.w.F.F.e.y.=.x.Z ; $ $ $ X ",
"P P l l k j j 9 9 w 7 e , , < 1 1 8 d g.OXNXUXLXKXSXV.1XSXGXDXHXVXkXyX^.c t d oX~.N.B.E.&.| &.=.*.-.2.F.2.x.F.e.t.x.>.  @ X $ X ",
"P L l l j j j q 9 7 7 , , 1 1 < 1 s 6 OXsX@XJXLXAXVX,..XdXVXxXVXVXdX.Xc Z T v t f.!.H B.5.F #.8.e.0.x.e.v.y.c.*.e.-.k.% $ X X X ",
"I P l l h h s 9 w 7 7 - , , < < : k s g.mXXXJXKXAXxX,.,.>.A S .XvXaXH.X.>.m g.;   6.F.[ H.<.V *.e.x.x.x.x.y.e.w.[ -.j.a X X X $ ",
"P L l h h w w w 7 8 8 - - - * : 1 s W 6 FXOXLXDXCXhX2.-X>.U T  .fXvXz.C  .>.NXZ d y ).J.l.u.r.c &.e.H.n.n.y.e.w.O.-.e.o.+ @ . X ",
"W l h w h w 7 7 6 6 e - , 1 1 , 6 n E h NXnXJXJXCXyXN.x % sX! d +.GX'.| d.z.T.d. .| =.K.x.y...q.C A 2.F.G.x.n.0.-.{ =.2.% + X X ",
"R l h w 7 6 7 7 6 s e - 3 - 1 1 2 P W W zXJXJXPXCXuXY.J T AXf.k.3XKX$Xq.l.&X6X,X%X_.K.i.D.$.9.^ w.A Z o.j.F.S.u.e._ { ;.< X X X ",
"R z w 7 7 7 8 8 7 9 - - - 1 6 1 1 6 U ! MXJXNXPXSXiXE.3.5X5X.X3XDXLX Xl.H.$X6X5X6X%X].l.8.u.^ 9.C -.B o.A &.B.y.c.0._ { g X X X ",
"R l w 7 7 7 8 6 9 s 5 - 3 : 1 s < 0 P U JXMXIXJXAXlX~.3.fXHXGXLXPXKX_.u.z.'.5XtX4X'./.p.9.' ' p =.p S -.B ,.c #.c.0.[ O.D X X X ",
"R l 7 8 7 7 6 d 9 s 5 - - - - h < 0 n OXzXJXJXFXNXcX-X5.lXLXLXPXLXKXT.9.u.T.6XtX5X&Xb.q.9.' ^ ] ^ #.v #.:.U.c f H -.*.[ T O @ X ",
"~ q 7 8 8 7 q s 0 s 5 ; - - - : < k U zXJXZXAXLXZXcX;Xr.vXPXPXLXDXAX].q.9./ &X,X&X].p.8...' ] C / ` p #.4.T.A u K _ $.[ D * . . ",
"R z 7 7 9 9 s a d x 1 * - e * * 2 d m.hXcXxXAXDXDXxX X<..XKXGXGXHXaXH.l.l.' L.,X%X].p.8.9.' ] ] ) _ ) :.B.^.H g u _ ( ) g & + . ",
"R h 6 a d U eXlXtX$X3.> : - - 7 n n zXhX7XVXAXCXDXzXU.#.B HXHXHXfXr.L./ q.^ %X%X'.L.p.8.9.%.' ' ] ^ ) @.~.~.C f u C C O.d &   O ",
"AXtX;X.X0X0X7X6X&X*.*.Q.+.2 a Q 3X0X>XwXyXhXzXCXzXyXN.@.Z aXxXxXxXcXcXaXz.].'.%X).D.i.u.9.9.9.%.` ^ S -.$X Xc f Z u F D * & . X ",
"0XU.$X;X0X1X!.S.r.(.y._ ].$X$XW.[.*XwX0XwX8X8XyXxX3X} ( D v vXvXGXLXxXHXT.l.l.J.L.i.l.p.8.8.9.9...^ _ j.*X Xi u Z i F c * . O . ",
"1X%XJ.y.4.&X5X;Xr.S S.S.y.2.r.T.$X>X:X*X XoXwX<XgXd.B F F T %XxXGXGXfX&Xz.......u.l.i.p.a.8.8.9.' C { W.*XZ.i g V i S g % X . X ",
"hX;X`.'.H.y.C L._. .^ u...c <.k.W.~.=XQ.Q.J.`.9XoX1.Z } } Y c gXfX].z.h.X.X.y y c D./.p.a.a.9.9.' V u.%X$Xf.t g y u D : X X X X ",
"9Xw.| T.%XK.u.i L.L.S S L.c c &.J.oX`.B.B.`.Q.=X&.B c +.} +.D V.fXX.v h.h.h.../ r.l.l.p.8.9.%.` ^ / B.%X$X:.t y y u D @ @ X X X ",
"=X^ c i r H.T.r.c _.( y <.l.=.,.).T.c.e.x.P.P.2.2.u Y o.+.,.Y g fXfXHXVXfX].....i.l.i.a.9.9.` ] C =.W.$X*XT 2 y t f T % @ X X X ",
"H.( y t r t H.T.) ..q.c c q.l.8.*.H.S.H.;.w.-.&.S u j.H ,.5.@.g T aX&X&Xz...9.z.D.l.p.9.9.%.' ] ] y. X>X-XZ : : t c Z X X X X X ",
"i.S i u y f p L.r.c l.c } [ =.*.[ _ $.( 2.e.-.6.V c 5.G 3.V.>.d t .XuX1X^.6X6X6XL.i.q.9.9.` ] ' -.k.2X3X-XF > a t S g X X $ X X ",
"u.^ p c C S C H l.z.H.k.r.x.w.-.*.2.w.e.w.0.2.B V 1.#.#.,.k.,.t t x uXlXVXxX0X&XH.p.9.9.` ' ' 9.r.!.kX8X%X .> r S S d X X $ X $ ",
"` ] _ _ | ..( #.c k.,.!.<Xc.;.;.0.w.t.w.w.$.H C H N.+.1.} 5.:.t : g  .gXpXaX%X_.i.8.9.%.%.8.*.%.z.2XCX8XP.&.r t A / 5 % $ $ X X ",
"..] _ ..*.#.Y r T +Xs.<XoXc.c.c.c.e.y.-.O.) ( H 2.1.#.6.G 2.T t d a T g 1X;X~.z.q.i.S.D.L.L.i.w.^.pXZXtXj.` _ r c S : . X X X X ",
"..' ` *.&.Y 2 a 3Xm.eX7X|.E.N.c.&.r.2.[ O.) ( &.2.6.1.1.G 6.D a 2 g Z t t T.^.,X,X[.'.'.=X%X(.e.3XzXJXiX&.^ ] ( C } & O X . X X ",
"` { ..,.J 1 1 U oXm.zX<XoXA.A.6.B.j.2.=.[ F 2.t.t.#.O.3.H 1.N x a Z Z t y !.:X4X,X:X,X:X5X4X).L.;XlXFXiX[ ^ C ) ) | t - ; ; % X ",
"%.-.>.1 - 1 5 m.oXiXkX8X~.E.5.N.4.r.<.$._ 2.5.#.F o.N.3.V #.Z d x G g y g W.;XwX9X4X9XqXuX9X`.(.U.iXNXgX=.] _ %.$...F a x N D >.",
",.2 * - - - - m.+XJXzX8XR.V.N.,.1.,.=.<.*.1.( Z O.Y W.d.o.N G i A N g t v C.3X4X9XqXqXuXuXqX).D.y.1XkXyX2.%.=.2.A > S ) *.S.L.l.",
"x 3 = e - - : a zXMXhX+XE.A.6.7.,.@.( } ( J N N N.A A.N.Y M Y N Y N g f V #.>X4XqXqXuXhXhX4X].G.`.$XyX1XB.0.@.( V } *.B.P.).K.J.",
"x - @ e = = s g.JXZXrX+X~.A.N.N.1.+.o.=.@.D N C Q Y 6.3.f f +.N N N u A C _ >X9X9XaXuXgXuX=X%X:X9X-X1X:XJ.i.@.@.A H.T._.`.Q._.`.",
"w = @ = = ; - OXKXzX+XoX|.A.N.N.U.Z.3.o.Y G G >.N N.N.N Z J G A f V u H H / ~.qXqXqXgXgXyX,X,X9X9X4X1X*XT.l.2.F r._.`.$X$X=X:X1X",
"q = @ ; = = h FXNX+XR.R.M.A.E.E.U.N.5.7.+.+.Y D D f.G i Z H A f H B A G H ..l.%X4XuXvXhX0X4X5X8X0X9X9X:XC.w.Y y k.`.$X;X4X9XqX9X",
"8 - $ ; = - e kXoXR.N.!.c.N.R.~.R.V.7.N.3.Z 1.o.6.#.g Z F o.H F V -.-.w.H.H.S.'.=X5XuXuX0X4X5X0XaX0X1X5X%Xd . .X*X*X;X5XuXyXyX0X",
"7 5 e 3 3 5 8 eXhXN.G E.E.oX+XoXoX|.N.:.o.5.o.3.3.f Z F #.o.H H O.r.0.Q.,X=XQ.`.=X4X0X9X1X1XtX0XqX0XqX8X3Xo @ 6X4XqXaXaXuXuXqX0X",
"z 7 e 3 5 e 7 7 kX+XQ hXhX@XoX|.N.,.>.N.5.o.A.d.u G G O.G K &.| r.e.L.=X:X$X$X&X*X;X1X:X:X1X0X0X0X0X0X2Xs.o f.9XqXtXuXuXuXuX5X4X",
"q 5 e 8 7 a j s jXJXFXsXsXhXrXoXR.N.d.Z.Z.Z.:.f G #.#.F V -.) y.e.B.%X4X4X:X:X:X;X:X1X1X9X9X0X9X0X7XtX2X. $ eX9X0XqXtXuXqX0X,X;X",
"8 e 5 3 j R m.I AXFXnXzXkXjXrX+XoX|.W.V.5.F o.:.1.G Y F <.=.*.p.G.%X3X2X2X1X4X5X4X1X0X1XwX0XqXqXtX7X0X.X  * 2X9X0X0XqX9X9X:X=X`.",
"7 3 4 w 9 n XXkXNXzXjXkX+X+XoXR.V.1.+.Y #.:.@.} G } C <.e.*.S.L.$X6X4X5X5X9X0X0XtXqXqXqXqXuXqXqXyXqXeXk X m.1X1X9X9X4X4X:X_.'.'.",
"7 e 3 q j j W DXMXMXnX+X+XE.E.E.E.E.Z.A F J o.&.O.H -.) w.i.G.'.=X:XwX0XaXuXuXyXuXaXtXyXyXqXuXgXuXaX8X.   3X1X1X4X1X:X;X=X'.P.).",
"bXBXsX#X{.W CXkXjXkXzXR.E.W D E.V.d.Y 1.+.2.t.@.( %.*.u.i.D.Q.`.>XwX2XtXtXpXpXiXyXyXtXuXyXpXuXhXuXtXg.X d 1X1X4X4X1X:X=X[.).).(.",
"sXOXsX@X@XjXkXnXNXhXR.Z M.M s.>XV.<XV.3.B.c.( C ..%.u.v.D.K.(.'.[.:XtXuXpXpXpXpXuXuXuXpXuXuXuXuXqX8X@ X R.6X1X4X4X6X;X=X'.).(./.",
"eX@XrXoX}.KXNXrXrX+XR.Y.}.+XrX8XoXwX XQ.e._ _ { 0.a.v.b.G.P.).'.[.:XqXuXpXvXfXlXpXpXpXpXyXyXuXqX0X<X. X 1X4X9X4X6X;X=X;X'.)./.G.",
"}.}.XXOXmXmXkX8XE.7.7.M.U ! +X+XY.oXI._ C ] 0.a.y.v.v.b.G.K.(.'.*X4XtXpXvXlXvXgXhXyXuXyXiXyXtXqX5XP + Z 1X9X9X4X9X:X=X=X'.(./.b.",
"@X@XrXjXdX+X+X~.A.Y G M 2 m.jXoX+X>X&.[ %.e.i.b.v.v.b.b.b.K.P.).;X2XuXpXdXlXpXgXuXtXuXyXqXqX0X5X1X. % U.>X4X4X9X1X:X,X=X'.(./.G.",
"BXBXNXzX8X<XU.,.G #.7.s P #XjXoXrX X*.9.e.b.b.b.b.b.b.b.b.b./.(.*X5XaXpXdXpXpXtX9X0X8X4X4X1X1X>Xm.. & -X>X1X7X5X1X:X:X=X).)./.b.",
"BXMXFXdX!.|.|.oXE.7.m 4 #X{.zXrXiXB.u.x.K.P.K.n.b.b.b.b.b.G.b.(.=XqXiXuXaXaX8X9X0X1XwX:X:X$X$XR.& . T `.;X>X2X1X3X:X:X`.).).(.b.",
"BXFXDXrX-X|.-X.Xc.D # OXI sXjXNXyXT.F.).).P.G.G.b.b.b.b.b.b.b./.;X5XaXtX5X0XtX9X4X1X<X-X`.$XT o   + 5.P.=X>X>X:X;X;X*X[.).K.K.v.",
"FXFXnXdX.XtX.Xf.7.+ q 4 g.g.zXNX2XQ.$X$X'.).P./.G.G.b.b.b.b.p.b.;XtXtXtXtXtX0X4X:X:X*X$XY.& + o o X t.P._.=X-X:X;X$X*X_.Q.G.v.0.",
"FXVXdX.XT.!.f.k.s # 4 z #X4 BXBX1X%X;X$X[.'.(.G./.G.G.b.b.p.9.b.1X0XpXhXpXtX0X1X>X-X*Xd + . o . o o j.J.).`.%X*X*X&X`.~.K.S.8.{ ",
"VXeX|.j.k.Z.k.k.  # # OX4 # MXkX+X1X3X1X=X'.).(.b.G.b.b.p.a.] '.<XlXxXkXkXyX5X1X X~   X . . . . . o C.Q.K.P.`.&X%X).).P.J.y.{ _ ",
"3Xk.:.<.C.U.V.>.; # q 4 # 4 NXjXeX8X8XwX:X'.(.(.(.G.G.b.a.{ 2.1XxXVXnXlXiXtX2X{.+ + + + . . o o o   J.Q.F.G.K.P.Q.K.F.n.x.=.{ A ",
" . . .k.U.Y.k.Q & # # = = 3 mXhXyXiXrX1X>X'.).(.G.b.b.a.9.y ~.cXAXCXzXkXeX+X6 % . . + + + . . . o   E.K.G.v.n.S.D.B.e.w.*.[ C f "
};
