/* XPM */
static char *_901b430b9454b15d3631ef7a8ee3dd5mgwSIWdu0U6hxLCE[] = {
/* columns rows colors chars-per-pixel */
"64 64 256 2 ",
"   c #010101",
".  c #0B0303",
"X  c #03020A",
"o  c #09020A",
"O  c #060904",
"+  c #130303",
"@  c #13050A",
"#  c #180707",
"$  c #060611",
"%  c #180B13",
"&  c #250B0B",
"*  c #250911",
"=  c #301413",
"-  c #352215",
";  c #2D2415",
":  c #3C2926",
">  c #351925",
",  c #512E31",
"<  c #7B222C",
"1  c #6F3431",
"2  c #5F291D",
"3  c #5D5831",
"4  c #704935",
"5  c #633448",
"6  c #7A4858",
"7  c #754D49",
"8  c #6B4275",
"9  c #694377",
"0  c #744375",
"q  c #7C4375",
"w  c #74447A",
"e  c #7C457B",
"r  c #7C497D",
"t  c #75497E",
"y  c #794F63",
"u  c #5F5647",
"i  c #88232C",
"p  c #9D252D",
"a  c #93252C",
"s  c #8D2431",
"d  c #992730",
"f  c #A8272C",
"g  c #B42B2C",
"h  c #BC2C2D",
"j  c #B32927",
"k  c #BB312E",
"l  c #B7312E",
"z  c #A72A31",
"x  c #B42D32",
"c  c #BC3232",
"v  c #B73034",
"b  c #C42D2C",
"n  c #CB2E2B",
"m  c #C62C27",
"M  c #D22F2C",
"N  c #C3322D",
"B  c #CB332D",
"V  c #C9382F",
"C  c #D3332C",
"Z  c #DA362B",
"A  c #D43A2E",
"S  c #DB392D",
"D  c #D83426",
"F  c #C33432",
"G  c #CB3531",
"H  c #CC3A32",
"J  c #C83A36",
"K  c #D33C34",
"L  c #DA3C33",
"P  c #D53733",
"I  c #CA2F30",
"U  c #E13C32",
"Y  c #E03A2E",
"T  c #DB462F",
"R  c #DB4333",
"E  c #D64432",
"W  c #E84A2D",
"Q  c #F44C2E",
"!  c #EB512D",
"~  c #F55B2C",
"^  c #FA5D2E",
"/  c #F5562D",
"(  c #E44434",
")  c #EB4332",
"_  c #E44C31",
"`  c #EC4D31",
"'  c #F34D31",
"]  c #F94E32",
"[  c #EC5535",
"{  c #F45B32",
"}  c #FB5D32",
"|  c #F45433",
" . c #FC632C",
".. c #FD6B2C",
"X. c #F96629",
"o. c #FC732D",
"O. c #FE7C2D",
"+. c #FD6331",
"@. c #FE6D32",
"#. c #F76335",
"$. c #FE7433",
"%. c #FE7C32",
"&. c #FC773A",
"*. c #EF6133",
"=. c #B53D61",
"-. c #C13B5C",
";. c #895150",
":. c #8B784D",
">. c #B27155",
",. c #8C4A69",
"<. c #98456D",
"1. c #834475",
"2. c #8B4575",
"3. c #834579",
"4. c #8B467A",
"5. c #8D497D",
"6. c #86497B",
"7. c #924674",
"8. c #9C4775",
"9. c #944975",
"0. c #9B4975",
"q. c #93467B",
"w. c #9A477A",
"e. c #93497C",
"r. c #9B4A7C",
"t. c #965974",
"y. c #955967",
"u. c #A4456A",
"i. c #BC476D",
"p. c #A44A75",
"a. c #AB4B76",
"s. c #A44C7C",
"d. c #AB4C7B",
"f. c #A84676",
"g. c #B44C75",
"h. c #BC4D74",
"j. c #B34D7A",
"k. c #BB4D79",
"l. c #B54774",
"z. c #AC517C",
"x. c #A75876",
"c. c #B55279",
"v. c #B1586A",
"b. c #B06370",
"n. c #DE535D",
"m. c #E2545D",
"M. c #EB5B5C",
"N. c #E85957",
"B. c #F25D57",
"V. c #E54E5F",
"C. c #F96B4E",
"Z. c #FD7C4C",
"A. c #F56354",
"S. c #FB6C54",
"D. c #F76558",
"F. c #FC7353",
"G. c #FE7C54",
"H. c #E86A5A",
"J. c #C74D6D",
"K. c #D54E69",
"L. c #CD526B",
"P. c #CB5065",
"I. c #D45269",
"U. c #D95565",
"Y. c #C24D72",
"T. c #C34B73",
"R. c #C45273",
"E. c #DE5370",
"W. c #E85B63",
"Q. c #F15D64",
"!. c #D36B71",
"~. c #EC6463",
"^. c #C56A4F",
"/. c #FE872E",
"(. c #FE8333",
"). c #FE8C34",
"_. c #FD8D3B",
"`. c #FA863C",
"'. c #FD9335",
"]. c #FE9B35",
"[. c #FD943B",
"{. c #FE9A39",
"}. c #F3933D",
"|. c #FD912F",
" X c #FEA434",
".X c #FEAB35",
"XX c #FDA33B",
"oX c #FDAB3B",
"OX c #F3AA3B",
"+X c #FEB434",
"@X c #FEBC34",
"#X c #FDB33A",
"$X c #FEBB3B",
"%X c #FDB12F",
"&X c #FEC434",
"*X c #FECA34",
"=X c #FDC43B",
"-X c #FFCB3B",
";X c #FED235",
":X c #FED839",
">X c #FDCC2C",
",X c #FCE538",
"<X c #FAE62F",
"1X c #B39458",
"2X c #958A4B",
"3X c #FE8C45",
"4X c #FD8C4E",
"5X c #FE8648",
"6X c #FE9542",
"7X c #FD944B",
"8X c #FE9C4C",
"9X c #F79744",
"0X c #FF8451",
"qX c #FE8B53",
"wX c #FF8758",
"eX c #FE9552",
"rX c #FD9B52",
"tX c #F39752",
"yX c #EA9154",
"uX c #FDA344",
"iX c #FDAD44",
"pX c #FEA34C",
"aX c #FEAB4B",
"sX c #F4AB49",
"dX c #FEB345",
"fX c #FEBC44",
"gX c #FEB44C",
"hX c #FEBC4A",
"jX c #F5B54B",
"kX c #FBA852",
"lX c #F1B156",
"zX c #CD8F67",
"xX c #EB986C",
"cX c #D7A875",
"vX c #EBB36F",
"bX c #C3835F",
"nX c #FEC444",
"mX c #FEC945",
"MX c #FEC649",
"NX c #F9D743",
"BX c #F5C058",
"VX c #F7EA56",
"CX c #F1CE6E",
"ZX c #E1D477",
"AX c #7C4A82",
"SX c #774A81",
"DX c #8C4B82",
"FX c #844B82",
"GX c #934B81",
"HX c #9B4B82",
"JX c #9B4782",
"KX c #9C5081",
"LX c #A44D81",
"PX c #AD4E83",
"IX c #B24F82",
"UX c #A85082",
/* pixels */
"r AXr AXSXAXSXSXSXSXr r 6.6.5.6.DXDX4.4.DX4.6.6.4.4.3.DX4.4.4.4.q.q.q.4.4.4.4.4.3.3.q e w r w w w e w w 0 8 8 8 8 8 9 9 9 9 9 9 ",
"AXAXAXr SXAXSXAXAXAXFX6.6.6.DX5.DXDXe.GX4.DXDX4.DXe.4.DXGX4.e.q.q.q.GXq.GX4.4.2.4.3.3.3.r e e e w SXw 0 0 8 0 8 8 8 9 9 9 9 9 9 ",
"FXFXFXAXAXAXAXAXFXDX6.5.DXDXe.GXDXGXDXDXGXDXGXGX4.e.GXq.GXq.e.q.JXGXHXq.q.e.4.4.2.6.2.6.4.3.3.AXe r w 0 w w 0 0 8 0 9 9 9 9 9 9 ",
"FXFXFXFXFXFXFXFXFXDXDXGXGXGXGXHXHXHXKXHXGXHXHXr.HXr.HXw.w.GXJXHXJXJXGXw.q.9.q.4.2.2.2.2.4.4.3.3.3.q q 0 q w w 0 0 0 9 w 9 9 9 9 ",
"DXGXDXDXFXDXDXDXDXGXGXr.r.r.KXHXHXKXKXHXHXHXHXHXHXLXLXr.HXr.GXr.r.w.w.JXw.q.e.2.q.q.q.q.2.2.4.1.3.q q q q w e q 0 0 0 8 9 8 8 8 ",
"GXGXDXGXDXGXGXGXGXGXHXHXHXLXLXKXLXLXHXKXKXHXLXUXLXLXs.s.LXLXs.s.r.JXJXJXJXHXq.q.r.e.9.q.9.9.4.4.1.6.3.3.1.e e q q 0 0 0 8 8 8 8 ",
"HXHXHXHXKXHXHXr.HXr.r.s.LXLXUXs.LXLXUXLXLXLXz.d.d.d.s.d.d.d.d.d.d.LXLXJXJXw.JXw.r.r.w.q.q.9.9.2.2.2.4.1.3.3.q q q q q 0 0 0 8 8 ",
"LXs.s.r.r.KXr.r.r.r.LXLXLXLXs.z.PXPXPXUXz.UXs.s.s.d.d.d.d.j.d.d.d.a.d.s.s.s.JXw.w.r.w.r.r.9.q.q.e.4.4.1.1.3.1.q q q q 1.0 q 0 q ",
"LXs.s.s.p.s.LXLXs.UXUXs.d.UXd.z.IXIXIXz.z.z.z.d.d.j.z.j.j.j.j.j.j.j.d.d.p.s.s.p.r.r.w.r.9.w.9.q.q.9.5.2.2.4.6.1.1.1.1.q q q q q ",
"d.g.z.z.d.d.s.d.s.s.d.d.d.d.z.z.c.IXIXIXz.z.z.PXd.z.k.c.g.j.k.k.k.l.l.j.a.a.d.p.f.p.p.8.8.8.w.r.w.q.9.9.7.2.2.2.2.1.2.1.1.q 1.q ",
"g.a.d.d.a.d.d.j.x.d.d.d.d.d.j.j.IXz.x.x.x.z.c.z.j.k.g.k.k.k.h.R.k.h.k.l.a.l.a.a.d.f.8.f.8.8.p.r.8.8.9.e.9.2.5.2.2.2.2.2.2.3.1.1.",
"g.g.g.g.k.g.g.j.d.d.a.d.d.j.s.j.x.% $ O O % x.k.j.c.c.h.c.h.g.k.k.h.h.g.i.t.@   # t.p.r.p.p.s.w.w.8.r.9.9.9.9.9.7.2.2.2.1.1.1.1.",
"k.k.R.h.h.h.g.c.g.l.g.g.j.j.l.x.. X         . t.z.l.h.k.h.R.h.Y.T.h.T.i.,     .     > l.f.p.a.f.f.p.w.8.0.9.9.9.q.2.q.2.2.2.4.1.",
"k.Y.R.h.R.R.h.h.g.h.h.g.l.l.,.O               O + 6 p.h.R.i.h.h.T.i.x.#   X           O 5 p.l.a.f.p.p.p.8.0.9.9.q.7.7.2.q.2.1.2.",
"h.Y.h.Y.R.i.h.i.J.h.c.i.x.:                         + y.i.i.h.i.l.7   X                   . 6 a.a.p.8.8.r.0.8.8.8.7.q.q.7.2.2.2.",
"R.Y.h.Y.J.L.J.R.h.J.J.t.#                               6 i.i.x.+ X   .                     O @ ,.p.j.p.p.0.8.w.w.7.<.<.q.q.2.4.",
"J.Y.Y.J.J.R.J.J.L.v.> O O                             O @ l.x.+                           X X   O * x.r.p.p.8.p.r.0.0.9.9.2.2.2.",
"J.L.L.J.I.R.L.R., +                                     O = @ O                                     O @ y 0.s.p.9.9.0.9.7.7.2.1.",
"I.K.L.P.I.E.v..                                         .                                       O         + t.p.p.8.<.0.7.7.,.2.",
"I.K.I.I.P., O                                           X       O                                         X   , t.u.0.<.<.<.,.2.",
"U.U.U.I.=                                                                                                       * t.u.u.<.8.<.7.",
"W.W.U.+ .                                                                                                         X t.u.u.u.<.<.",
"n.U.&                                                                                                               % 6 u.u.u.u.",
"~.=                             .   .   O O   O   X               X @ ;.y.;., # . X                                     & u.=.u.",
"=                             X O + !.b.b.!.!.+ .   .             . b.E.E.L.J.L.v.;..   .                                 + y.-.",
"X                           .   # !.Q.W.Q.~.~.Q.b.+ O             b.V.I.I.I.L.L.K.P.L.b.+ X                       X       X . , ",
"                            # 1 !.~.Q.M.Q.Q.D.~.D.~.v.# X       , !.Q.W.W.U.E.U.U.U.K.K.P.y.+                                   ",
"                        X X !.D.C.~.D.D.D.D.D.D.D.S.H.!.+   X = N.B.M.M.m.m.m.U.m.m.n.V.V.n.!.  X                               ",
"                          + H.F.F.S.S.S.S.S.S.F.F.S.D.D.H.1 1 H.B.A.D.B.A.B.N.M.M.M.M.B.N.N.V.7                                 ",
"                        o 4 0XG.G.F.G.G.G.0XwXG.G.G.F.S.S.S.D.S.S.C.S.S.A.D.A.A.A.A.B.A.A.B.N.H.                                ",
"                        . xXwXwXwX0XwXwXwXqXqXwXqXwX0X0X0XG.G.G.G.Z.G.F.F.F.S.S.S.S.C.C.C.C.C.C..                               ",
"                        o vX8XrXeXrXrXeXrXrXkXrXrXrXrX8XeXqXqX7XqX4X4XqX4X5XqX0X0X0X5XZ.Z.F.Z.F..                               ",
"                          cXkXkXkXpXkXkXkXkXgXaXkXkXkXaXpXkXpXpXpX8XrXrXeXrXeX7XeX4X7X7X4X3X0XxX                                ",
"                      X   4 gXkXgXgXgXgXhXhXhXfXnXhXfXhXgXgXaXgXkXiXiXaXiXpXpXpXpX8X8X8X8X8X3X1XX                               ",
"                        X . gXhXhXhXfXnXMXMXMXMXnXmXmXMXMXhXfXhXhXfXhXgXgXdXgXiXiXiXiXiXuXuXkX@                                 ",
"                            ZXMXnXMXMXmXMXMXmXmXmXmXmXnXMXMXnXMXnXhXfXhXfXfXfXgXdXdXjX#XdXaXvXX                                 ",
"                            - mXhXnXnX=XmX-XmXmXmXmXmXmXmX=XnXnXnXfXnXnXfXnXfX$XfX$XfXjX$XBX#                                   ",
"                              vXgXdXhXfXfXfXfXhXMXhXfXfXfXfXfXfXfX$XfXfXfX$XfX$X$XfX$XjXjX, $                                   ",
"                              . vXOXgXsXoXdXaXaXiXgXdXdXiXiXiXiXiXiXiXiXgXdXdXdXdXdX#XCXO                                       ",
"                                @ ;.kX{.8X8XuXuXuXuXuXuXuXuXuXuXuX6XuXuXXXXXuXoX XsX:.@ $                                       ",
"                            X     O % 4 xX9X6X8X7X8X6X6X9X6X6X6X9X[.6X6X[.6X9X9XcX+ X                                           ",
"                                X         # bXtX'.[.tX_.7X3X_.3X3X3X_.5X5X3XbX+   X   X             X                           ",
"                                          . o % 4 xX).7X3X6X3X5XZ.}.Z.`.zX# O                                                   ",
"                                        X         O 7 tX_.4X3X5X5XZ.5X- X X .                                                   ",
"            X           .   .     O         X X     o # xX[.7X}.3XyX+     . X     X         X . = ;.>.;.= . O .             . . ",
"                X   . . o X   O X                     O # vXuXpXlX# X X       .       X . - bXtX_.O./.O.%.&.yX>.2 = + + # + 2 ^.",
"          $ @ - cXkXuXOXsXjXvX1X: O $ $ X             . X . CXhX. X             X O ; cXlXoX X X].'.).).`.(.).&.%.o.+.#.C.[ { } ",
".   . . = >.lXXX.XoXoXoX#X@X$X&X*XNXCX:..     X X         X O u X   X       X . 2XBXmX>X&X%X+XoX{.9X[.}._._.`.&.&.@.#.{ { } } } ",
"9X}.9X[.'.9X{.XXoXoXoX$X$X=X&X-X;X:X:X<X,XZX3 O O O o           X   X X   X 1XNX>X;X*X*X&X@X+X.XXX].[.'.).(.(.$.@.@.} { { | { { ",
"_.3X[.}.}.'.{.XXXXoX#X$X=X&X*X;X;X<X,X,X,X,X<XVX2X$ O         X     X O ; VX<X:X:X;X*X*X&X$X+X X].]._.).`.%.%.$. .+.{ | | [ { ^ ",
"{.9X9X6X{.{.].{. X.X#X$X$X&X*X;X;X:X:X:XNX,X,XVX<XVX3   X         X $ :.NX;X;X-X*X-X&X@X$X#X.XXX].'.).).(.%.o...+. .^ { / / ^ ^ ",
"].].{.{.{.].].]. X.X.X+X@X@X&X*X*X;X;X;X,X:X,X:X<X:X:XZXO $   O   o 1X:X*X*X&X&X=X$X+X$X.X.X X].].'.)./.(.(.$... . .} } ~ ^ ^  .",
"'.].'.].{.'.'.].].XX.X%X+X+X+X@X@X&X&X&X&X&X*X-X-X;X-X-XCX# # , O :.fX=X@X@X%X+X.X.X.X X].].].].|.)././.(.%.o.o...X.X. .X.^ X...",
"(.)./.|.).).).[.'.'.'.].]. X X X X X X.XoX.X.X#X#XOXOX%XOXOXsX.XgXOX X X X.X X X].].].|.'.'.'././.(.O.O.o.o.o.X.X.X.^  . . . .X.",
"..o.o.o.o.%.%.O.%.%.(.(.(.(.(.).).).'._.'.'.'.].{.].'.].{.[.'.).).'.].).).).(.).(.(.(.O.%.O.o.o.o.....X.X...X.X. .~ ! ~ ~ ~ ~ ~ ",
"[ { [ *.{ { { #.*. . . ...@. ...@.o.....@.$.o.$.&.$.$.%.$.$.&.&.&.$.$...@...@... .+. . .+. . .} ~ { ~ ~ ~ ! [ ! ! ! ! ! ! ! W W ",
"_ E [ T _ _ _ ! [ ` | [ ! / ~ { / / | ^ ^ } ^ ^ ^ ^ } +.} +.} ^ ^ ^ / ^ | ^ ] | ' ' ' ` [ ` ` _ W W _ _ _ T T _ T T R R E E E H ",
"E E E E E R R R T R R ( R ( ( ( W W W ` ` ` ` Q ] ] ] ] ] Q ] ] Q Q ' ' ) ) ) ) ) ( ( ( ( L L L L K A K A H H H V B F B V V F V ",
"J J E J J J H A H H K K K L L R L ( L U ( ( ) ) ) ) U Q ) ) ) U U U U U U L L L P L P P K K G G V B V F F F F k F k c c k c v v ",
"v v c F F F F N V V H H H V P H A A A L S K S U S Y U U U U S Z Y Z Z S C C P C G G I I J I I c N c l l l x l l v x x x x z x z ",
"v l v c c c c N c F c V F B G G C B C C P P P Z Z Z C Z Z C C C M M M I n I I n I b b b h h h h g g x z f f f f z z d z p p d d ",
"v l l l l l h b b N N m B B G B B B P B M M Z Z C P C C C n C B I I I b n b I b b h h h h g j j g f f f f z p p d d d a a a a s ",
"k k l c h k k N b N B m b n B B M C M Z Z D D D D Z D M D B n M n n m b m b h h h j h j f g f f f p p p a d a i s s i i i < < < ",
"N N k F b b B b I B n V n D B D C Z D Z S Z Z Y Z Z Z Z M D M M n M m m b b b h h x j j j f f f p f p a a s i i i i < < < < < < "
};
