/* XPM */
static char *_2ec74666af648458f15336aa634a148IY6qOBbGpwA5GNZR[] = {
/* columns rows colors chars-per-pixel */
"64 64 196 2 ",
"   c #174B16",
".  c #1B4D17",
"X  c #1C4C1A",
"o  c #165416",
"O  c #195517",
"+  c #165B16",
"@  c #1B5B17",
"#  c #1C541A",
"$  c #165B18",
"%  c #1C5C1A",
"&  c #22561D",
"*  c #29551F",
"=  c #235C1D",
"-  c #2B5D1F",
";  c #176317",
":  c #156D17",
">  c #1C6917",
",  c #166218",
"<  c #1D631B",
"1  c #176F18",
"2  c #1D6B1B",
"3  c #1D731C",
"4  c #1E7C1D",
"5  c #23641D",
"6  c #29631F",
"7  c #236C1E",
"8  c #296C1F",
"9  c #23731E",
"0  c #29721E",
"q  c #237A1E",
"w  c #2A781F",
"e  c #285220",
"r  c #265D21",
"t  c #2B5D22",
"y  c #335A26",
"u  c #1F7421",
"i  c #1F7A21",
"p  c #266421",
"a  c #2B6522",
"s  c #256C21",
"d  c #2C6C23",
"f  c #2F6728",
"g  c #326524",
"h  c #396524",
"j  c #326C25",
"k  c #396E27",
"l  c #35652A",
"z  c #38652B",
"x  c #346C29",
"c  c #3A6D2B",
"v  c #257421",
"b  c #2C7323",
"n  c #257B22",
"m  c #2C7B24",
"M  c #2F7429",
"N  c #2C7E28",
"B  c #337425",
"V  c #397426",
"C  c #327B25",
"Z  c #3A7C26",
"A  c #347429",
"S  c #3B742B",
"D  c #347B29",
"F  c #3C7C2B",
"G  c #3F6536",
"H  c #3D6E31",
"J  c #377230",
"K  c #3E7531",
"L  c #377B30",
"P  c #3E7B32",
"I  c #456B2E",
"U  c #41762C",
"Y  c #427C2E",
"T  c #4B7B2F",
"R  c #436C34",
"E  c #437631",
"W  c #487635",
"Q  c #447C32",
"!  c #4A7D33",
"~  c #457038",
"^  c #4B7F39",
"/  c #1D831D",
"(  c #1D891C",
")  c #23831E",
"_  c #258322",
"`  c #2C8224",
"'  c #258B22",
"]  c #2C8B24",
"[  c #2E8629",
"{  c #2D8B29",
"}  c #338326",
"|  c #3B8226",
" . c #328A25",
".. c #3B8A26",
"X. c #37822D",
"o. c #358429",
"O. c #3B812B",
"+. c #3C822A",
"@. c #398429",
"#. c #3A8729",
"$. c #3C852B",
"%. c #3A822C",
"&. c #3F802E",
"*. c #3D832E",
"=. c #3C852C",
"-. c #3D862F",
";. c #3C832B",
":. c #358B2A",
">. c #3B882A",
",. c #3B8B2A",
"<. c #398B29",
"1. c #3E8A28",
"2. c #3C8B2C",
"3. c #2D9024",
"4. c #2B9324",
"5. c #339326",
"6. c #33942B",
"7. c #3D9028",
"8. c #3E902C",
"9. c #3C922C",
"0. c #3B9A2C",
"q. c #3C8431",
"w. c #3E8833",
"e. c #3C8B30",
"r. c #3AA227",
"t. c #40822B",
"y. c #40802C",
"u. c #41812F",
"i. c #43812E",
"p. c #44822F",
"a. c #40852C",
"s. c #45872D",
"d. c #43842D",
"f. c #49832F",
"g. c #42892B",
"h. c #40892D",
"j. c #42892D",
"k. c #408D2D",
"l. c #438E2F",
"z. c #438A2D",
"x. c #48892B",
"c. c #4A8B2E",
"v. c #43922C",
"b. c #4E922F",
"n. c #50942F",
"m. c #438033",
"M. c #438730",
"N. c #478530",
"B. c #458634",
"V. c #478635",
"C. c #448332",
"Z. c #498232",
"A. c #4D8433",
"S. c #498734",
"D. c #4B8434",
"F. c #438930",
"G. c #438D30",
"H. c #448B31",
"J. c #498932",
"K. c #488A32",
"L. c #4A8A33",
"P. c #498E33",
"I. c #488D34",
"U. c #4B8B34",
"Y. c #498138",
"T. c #4C8538",
"R. c #4E8C39",
"E. c #518436",
"W. c #518B35",
"Q. c #52863A",
"!. c #5C873F",
"~. c #538C3A",
"^. c #588F3C",
"/. c #598F3D",
"(. c #469730",
"). c #469331",
"_. c #4A9530",
"`. c #4B9532",
"'. c #4B9333",
"]. c #499F30",
"[. c #529335",
"{. c #599235",
"}. c #519B36",
"|. c #5B9D36",
" X c #529638",
".X c #5A933A",
"XX c #56983C",
"oX c #59993B",
"OX c #609739",
"+X c #5A8744",
"@X c #5C9645",
"#X c #5E9F43",
"$X c #6A9742",
"%X c #609C42",
"&X c #659A4A",
"*X c #5EA240",
/* pixels */
"N } ' 1 7.b p 9 v 2 D b ` ] s ] ] 7 % r } p m v Q m d p  .m n M N ] C m j l.D D m V +.%.5 a w B b P.H U.A F k 8.#.F l.B -.j._.d ",
"]  .1 2 B . C ) 9 v M < d _ 2 8 m w % b m # v M d C -.a l.d b a Y 2 B b d F s j $.B | D a m 8 Z o.Z A.u.B j.P B U Y.#.D >.I.F m ",
"3 @.8 v _ 1 C m < ` n n s o.n d m } % p D M a s Z C a 7 C v ` s >.m 7 < } >.S p 8 b 7 s r C ..C 9 u.v.D.C B 0 k s.Z.L.*.D C.V ^.",
"} } < n m m 2 7 3 < v M 2 2 b A @ ` 8 F w.m 5 7 q V v b 6 C D p b D 8 5 F d F x Z k B B F C N 6 B p B C.B x.a.F Y M.G.F u.j N.N.",
"} ; 7 v C D m = 3 d b X.= 5 b M . b ..>.B.s v n 5 d 9 2.B C 6 } d D Z m b D j Q -.B 8 B g.7 8 5 Z a 7 a ! b *.u.5 -._.B L.F -.j ",
"q 5 b 7 ` b 7 = ; ` n 2 A d 7 m b n 7 9 b d C -.= * s m m 8 S 0 } d 6 @.v b B Y.Z V 8 S 6 8 d @.Z b F S :.B *.F *.F Q *XY $.C.).",
"w 1 ` @ v 8.N N 3 < ` q _ b < m 5 1  .7 9 C C = -.o.d D = b Z - d o.d > < 0 5 9 j s.p.Z F C 5 d g S o.d } Z Y B L.h f.K.a A j V ",
"r.] N > 2 B _ ) 3 q M % < # V v 6 #.b 8 5 C a b 9 q 2 _.D * d 2.V 6 d c.S p L F.^ a $.C U.u.y F f.| U.F B a.a.* V b.D  XY.%.Z 2.",
"q 5.v n n 0.v o o.C b % m f 2 p 7 A #.# j m 9 B 7 3 7 A s a d ` V D.F b D % a A A Z K = C Y j P.C +.V oXc m ~ S F @Xj.#.F S ~.g ",
"4 q 8 9 > } n & v :.> _ v u 2 < v Q s b o.v 9 s 5 d 5.s 7 C b a 5 | F s b ^ M A q.D d C.U v @.t.%.u.j 2.j.F Q f.E.Y +.b A Z Z B ",
"; 9 v 9 s d b 5 F m 9 $ b v 7 b 7 A b % Z B 5 8 w [ 7 % m F m 7 B F j 7 o.A % b U B x F B m c F V ^.j Z Z F s.c C t.k S j V t.C ",
"9 } a % 9 G.9 B 4 # m = _ ] 5 s 7 q.p C D B.% m ; 0.6 - m 2 p b 0 $.N 7 N F b %.= F k C A D a D V S *.C A.8 Y E t.s.B b p.f.T F ",
"_ O  .` ` j 7 9 _ p S < O 7 7 5 <.7 5 5 :.C v B [ _ p F v M 5 S = 8 l.w.5 % x < 5 t.G.r 9 m m 5 F Y B D U E.M.&Xz j +XN.Y F T }.",
"4 > ] <  .` 9 C < [ m < ; A 5 q s j 7 $ b d D D 5 z B m P t j ..< j +.s.= < S 5 7 c.B F Z 5 P.W.S *.p s.Y M t C ~.U.s.Y c V c.Z ",
"q ) 2 9 7 2 q b 9 . 7 9 9 9 j d q >.o.d 5 m 2 b S D I %.p 7 8 u.7 6 $.C B d m E C d V e *.g.N.Y Z Q N.d C C.E C p F u.8 2.^.u. X",
"4 3 3 ) m 5 9 q n % b o.< m n B 5 C n 2 j 2.7 9 d d = b F v 7 d d f % C c B B U.F Z S Y 7 a `.Y a Y S j -.M.j c Q S Q j C V -.W.",
"4 [ < q < _ 2 ; 7 b q j a ] 9 M m C q + 2 k % & ..b p B B Z % % a j M +.d } C ).& A B %.< d b B S j F l.! C M 6 U s.Y x Q A.s.C.",
"<.9 2 1 v 3 q 0 7 3 % m # 9 v p m 7 9 v 1 d p F C g u.m 7 %.b E 7 d d C Q.Q *.F B b d l w.e Q Y Z & 8 +.| Q S Q.m C c.2.C S d ~.",
"q 9 9 9 < < 3 q 2 v n < 5 j { m C v r d 8 b 5 w m o.5 7 2.N a t g b # v a.{.D N % D X.b u.6 V _.6 S = i.F b OXS O 2.a.j 6 Y a y ",
" .2 7 } v 7 s } u # v 3 d C m r p S :.p % n Z U.$._ m x #.p X 2.2 D B F.Q a } j r M.S #.5 8.B d C z D & Z s A C.g F B B F d B &X",
"4.7 b v 3 n ] M i 2 u % v = b # m < m  .` n % g U S 5 8 m d # < } D b m 7 <.b D r j  .K j < d c k B D.M | 8 Z Q.d F V j T W.C s.",
"w q < n A 3 ] O a < = } m s b p 7 9 # C b % b %.d a D B Z m d A d < m b t } ; B %.a.j x M u.L.C D g '.C 5 8 +.R.! F P.^ Z g Z P.",
"5.q 9 7 5 5 q q v v < ' m d ; & b q = o.7 b s B o.p 5 m | ` & 7 x C 0 5 j b B 7 M.D A t B B } d F [.w.j p C K.A.D B S V j V Y b ",
"> 7 q q  .m m 9 s < s q M C % A { % j m # v F < Q a C s * 7 N D d 7 m 8 6 d d +.V Y U d p.V k | ! E [.C +.D.Q S t B U Z T A.s.Y ",
"} v 7 8 _ ; d 7 4.q m b 5 s < q m 9 j v % B 8 5 Z :.n 7 n v p 5 D s k M = i.9 q E e # d Y b & D S = u.k T I Y S l.Y B Q.U.j $.Y ",
"` 7 # - < b b N 3 9 d s ; b + < C C % b 5 % % % c * w d j m 7 F p d d n v W.D.s.m V r A +.F.j s Y A.A r ,.W.A B 6 ! A g t.E.d T ",
"7 9 D s _ _ ; [ 5 < 2 < d b O 7 C 5 N v v v m = C P 2.< j p D f % s % A [ 5 j l d C j P.G k p I.D = V d C T ^ D s. .C d E E l.z ",
") m C d / n > 3 4 3 9 N 7 7 d s m M n ' m M D %.p n v A l F b d   -.b  .x v B C b N A B l.N.a.d j L d o.b t.S p ~.E.6 S U T.D A.",
"; ] w q ) 9 i 2 3 2 v ` v / j b %.d n r u s 5 5 b p 5 9 k B 0 C = 5 g M d Y F 6 5 p A.K %.M.p ^ a d a.F L.x.C.% d A.c K.C.d Z y ",
"q N m ) v o 3 s 2 b u 2 j 5 7 2.N 7 s a m 2 5 s s a 7 b h C 0 B j 7 5 B m Z j 8 m d S B i.E B R.d a a.j j c.j $.E V Y.F A Z I.r ",
"5 0 - 5 D o D 5 n b < b D & N <.5 3 8 p $ = v q r K M ` 5 B C < C 7 C [ s d a 7 C d N.y $.Z g V D B Z D j.a +.~.Q K E D D -.+Xd ",
"4 ) ) ] 3 9 2 < 4 < % s s m o.` % p n 9 p D s d 2 s 7 w 8 7 } _ b # s d B W a C d F g j b B D < * d V j R @X Xc E M j Y k s.>.C.",
"3 9 d b ' i 2 d 9 < 7 n a s t d % b n s 3 6 9 C 9 5 m 8 C < 5 B m } s r  .% j b :.b *.F = Z.V A B.m.d l F c ! U.S C t g s.p = XX",
"5 9 0 o s } 2 8 _ < n s n 4 2 s 7 p p d %.s 7 b % C b O 0 j @ ] 2.v < 5 K B 5 5 F V Y ~.m S o.s d Y 9 A D E S B j j u.a.Y U.d C ",
"` 7 [ / v v # 8 m 9 m d s 2 % s @.9 5 s v & 7 ) 0 V b B B b b d B *.b % 5 a.b %.k p.S E A x b j b j } U f '.B.C.c p B t.S ~.p C.",
"m O v u $ s O 5 w 7 < v b s % a o._ < 7 9 < B 8 X c F U m 8 % *.d Z 8 D b q 5 ` = a V Q.f k A < +.B D B.q.C C.M.I.X.6 F R.D.C.t ",
"2 9 m 5 C b @ O B v < _ 7 5 a d d 2 $ < F p } 7 $.= 9 l C j p s 8 8 j g D d P ! M a.= 5 D D B d R.p r 0 t Z H `.d g P.d k M r & ",
"> @ 9 q %.q 2 q m m 9 B % 2 ` 7 v F < n 5 5 m = p 9 3 ; m o.p 5 b F m 8 l B X.D a S d a # W.A k E.s.% j A.f %.Y 5 = K.^ S p f #X",
"` 5.> 5 a s n ' 9 5 = [ v s 5 < M m r V 8 # C m B . b = -.V k +.} 5 B c a m S f X.2 M S Q D H d V F S * ..& C p S a '.~.~.Q a Q ",
": 9 _ b u s 2 m 3 % p #._ 2 _ ; < 5 ` N 9 5 C j A = #.= ,.a # F 9 B N p -.D E d k V e M.* 9.a & F j p d .X5 H.j A.K M.A.Z e.W.%X",
"' n 2 n u < _ ` v , d s s s p < 7 m % F 9 d o.M } v * v B 5 5 8 # F j 8 t.S j Z p p v j c ! Y j M o.o.Z C c h Y F ).E ~.R.x Y ! ",
"9 = 5 9 _ 2 C [ v < 7 m 5 v ; 5 b = 5 n 7 % p g ,.a 7 n B m C < p j A b C U m d s & b S C.2.b A 5 F U Z ].Y b ) s o.T.C.I.s Y E.",
"v w O 3 3 5 a b q 9 s d v v X = q 9 C s 5 m < # s.5 s b A N 7 * 5 D d C d = V 7 A f 9 b A.C d x V Z Y.5 m m s.W.B s F d *.C.j Q ",
"< 5 5 b < F 2 7 o d % $ b = s b 0 d p [ 9 2 b D d p B b t a 8 } :.= d 6 l m C B F B a.a * ~.M.p 7 A Q V p B B F C.b F x U S W S ",
"q < 3 m 7 n % w w 9 > 7 9 q i b C < % _ v & N } N d D } d A = Q 2.8 B X.. b t.j B p } A 2 d j D A l X.w.= g Z W Y Q a %.*.B j E.",
"b C ) 7 3 7 3 5 + b < s 9 ` < d p m v ; a w %.7 b r < x a B = Z C 7 F N 8 m D :.k p a x D w.5 D.F.b M c B 5 n.z S B & Q D.k s.$X",
"] 7 ' 1 % 5 3 3 7 9 2 b % 7 2 % % ] 7 s m M 8 V S X.5 #.s p D 7 B s 7 ` 9 d XXa d S ^ D.X.D D F t A l ~.V p g V [.W.c i.F S F ~.",
") @ b n > b v v 5 b d 7 @ m v 3 b _ b s s n 7 7 p S d D x 8 P.6 7 C A b 5 d A m j x S k m F.S a M k Q t # T L.{.j +.g E.Y S .XA ",
"2 q 9 9 > C % b N v 5 m 7 m 8 3 p % B A 2 ] = C = B s :.7 m f D 9 Y m a b A K . } g *.f 5 b F k s.F C M Y %.Y Y./.Z T U V Y F x ",
"7 C < w q 6 d m 2 b b d C 9 d n < % a 9 b m d } Z 6 s d % D 5 @ B A.d m v D A x 2.& m m 7 F j b F Z B B V j B 5 ^.j XXd a c ! F ",
"9 5 = % [ ) 9 9 % % A C } 4 < m s o s A Z 9 F 8 x a s v -. .i % j B v b s 2.d A D F F D s.Q k & h o.8 %.C.x 8 m 6 ! Y } C S A.H.",
"n s ] 9 # m 9 , . 2 v D } 2 b m C < 2 F C C m 8 d -.N = V m $.B M s s D x j H [ A V } Q b ! w 0 6 o.a Z D ).d B |.R.V %.s.Q.y D ",
"[ 7 ' n 2 d d ( v v m v 5 F m ` ` } % $ 5 ` d d O 8 S s.b Z C B 8 5 M _ 8 F S C M w.N -  .j 0 B N.p.R.% K.m.F Y.T  Xb } o.E.j C ",
"8 d ; b d M [ 7 5 m _ 9 < r j m = Z e.3 s Z % m 2 b [ 5 Z M j B ` s b S % B d j A D S C m i.2.0 B *.l B B D s.a.F g L.F t D x C ",
"9 m v C < n { ` 9 m s m 1 ; b v b N 7 b s D = 7 v A 2.d N a D F 6 t.a m b Z B g.-.F % g m F S M.s k # d V Z g.o.-.K.j U.V j f.Z ",
") = a 8 b v 3 % @ C v ' n u s v N :.4 < s Z D s * 7.; 5 % D j u.$.b 5 F C 8 * U.W.F 6 5 } S A 8 } %.X.[ j ~.D.D -.r = C -.q.j j.",
"v.7 7 :.[ u < b v 5 b } ; 7 n N >.b m 7 [ } l D # s v v b s d D s b V Q M F p.W.c D F b % w.D 5 Y Z | 6 l A l S g.d X v.U U.b x ",
"] * ) [ ; v s 9 [ 5 % o.2 5 v ] 2 A m $ $ 2.#.5 < < 7 2.p a x C.d B D m m B ` F.V T.l x t d A.F Z P.p C *.P V.V x .Xs.E.Y Y Z B ",
"m 6._ / 3 m 8 d 0 m s m s v n e.v 8 } C % A s [ s | N Z m p A V _.B S C n S b D.d a U.3 9 m Z D j B W.~.:.k p B.g Y ! V Z [.*XC ",
"< m ` 2 m :.*.7 5 < 9 C s F s v 5 O & o.d :.b ] b v d A 7 < 5 C -.B 0 s a k N p A j u.B L.j F.; Y U - 0 j c.[.U A.w.M t.V |.E.+.",
"/ 3 v 2 2 m t m 7 d 2 t D  .m v 2 A n q p B F ` s d j M b ] F b B M m b p < o.D D F m 5 B z 2.D | j C +.F M I.Z c 5 a.B 6 W.+.E.",
"] > 2 7 7 m s 9 w 2 2 N d v 2 n ` v 9 n m M I.= A D C q.5 b F 5 F S D D s % B 2.D B k -.Z ~ c :.} F j W S J F l Y C.E A } P.Q m ",
"n n 3 s } ( 0 9 b m -.s 2 m _ $ o 9 n b X.` M @ Y N v = j d d U C C D 5 ~.S D C * b F j.g Q M < d V {.oX:.D c s.L.x (.^ D K.K m ",
"v o.n n m 9 2 4._ { m [ n o.X.j b s C.p D { N A = r w.2 < G.< Y 9 b X.m C A m 5 %.0 m B -.n d %.D.s k ~.Z B d +.K.x j.^ K #.%. X"
};
