/* XPM */
static char *_80cc8dcea054335e19ec3b94c2fb41fUUl2ZGe7qWgSIIYO[] = {
/* columns rows colors chars-per-pixel */
"64 64 256 2 ",
"   c #14191C",
".  c #1B1B1C",
"X  c #171418",
"o  c #140D10",
"O  c #390D12",
"+  c #241B1D",
"@  c #28181B",
"#  c #37191C",
"$  c #290B0E",
"%  c #1B1624",
"&  c #1C1B24",
"*  c #1C1C2B",
"=  c #161B28",
"-  c #1A1E33",
";  c #231C24",
":  c #2B1D24",
">  c #231E2B",
",  c #2B1D2B",
"<  c #241622",
"1  c #361C28",
"2  c #231E33",
"3  c #291F32",
"4  c #1D222D",
"5  c #1D2134",
"6  c #1D243B",
"7  c #182539",
"8  c #103231",
"9  c #252225",
"0  c #2C2224",
"q  c #24222C",
"w  c #2B222C",
"e  c #2A292D",
"r  c #332225",
"t  c #34232B",
"y  c #3C2B2C",
"u  c #392629",
"i  c #242233",
"p  c #2B2434",
"a  c #2C2935",
"s  c #23243B",
"d  c #2B253B",
"f  c #242A3E",
"g  c #2C2A3C",
"h  c #332433",
"j  c #332A34",
"k  c #342A3C",
"l  c #392738",
"z  c #39333B",
"x  c #2E3338",
"c  c #23211C",
"v  c #490E14",
"b  c #491218",
"n  c #59141B",
"m  c #520D16",
"M  c #65141C",
"N  c #451C29",
"B  c #4E1D2B",
"V  c #7A1B25",
"C  c #691928",
"Z  c #46272B",
"A  c #54292C",
"S  c #442434",
"D  c #4B2C34",
"F  c #472937",
"G  c #5A2D34",
"H  c #542C36",
"J  c #473739",
"K  c #55343A",
"L  c #5A343A",
"P  c #583537",
"I  c #53382B",
"U  c #633639",
"Y  c #6D2D2F",
"T  c #5D261B",
"R  c #694439",
"E  c #5C403F",
"W  c #1D2848",
"Q  c #242B43",
"!  c #2C2C43",
"~  c #2C2C4B",
"^  c #262946",
"/  c #332D43",
"(  c #332E4B",
")  c #392C43",
"_  c #2B3248",
"`  c #333244",
"'  c #3C3344",
"]  c #33324C",
"[  c #3B334C",
"{  c #3B3A4B",
"}  c #2B3255",
"|  c #343352",
" . c #3B3553",
".. c #393956",
"X. c #2E2E52",
"o. c #3C3C60",
"O. c #472E44",
"+. c #43334B",
"@. c #473848",
"#. c #573A49",
"$. c #423B54",
"%. c #473953",
"&. c #563B52",
"*. c #683746",
"=. c #364959",
"-. c #3C4266",
";. c #574447",
":. c #484558",
">. c #594557",
",. c #4F464B",
"<. c #6A4A49",
"1. c #784947",
"2. c #6F5253",
"3. c #4F4D6B",
"4. c #675267",
"5. c #756A68",
"6. c #2F6534",
"7. c #8B1A24",
"8. c #851A24",
"9. c #971D28",
"0. c #A71E2C",
"q. c #B61E2F",
"w. c #99222C",
"e. c #972A35",
"r. c #8F3035",
"t. c #A4222C",
"y. c #AB222E",
"u. c #AC2A2A",
"i. c #B3232E",
"p. c #B9222E",
"a. c #AC2432",
"s. c #A52935",
"d. c #B42433",
"f. c #BA2533",
"g. c #BC2935",
"h. c #BC2B3B",
"j. c #B52939",
"k. c #B73338",
"l. c #871C1E",
"z. c #C22936",
"x. c #C42C3A",
"c. c #CB2C3B",
"v. c #C42535",
"b. c #C7333C",
"n. c #D62D3D",
"m. c #CE1A35",
"M. c #BA4E38",
"N. c #B06B34",
"B. c #965130",
"V. c #CC4D3C",
"C. c #CC703A",
"Z. c #E35A3D",
"A. c #923841",
"S. c #B23945",
"D. c #CA3645",
"F. c #D53746",
"G. c #D1354A",
"H. c #89544C",
"J. c #875958",
"K. c #995858",
"L. c #8B4A49",
"P. c #B44B53",
"I. c #946454",
"U. c #AE6D56",
"Y. c #B45D66",
"T. c #906F6A",
"R. c #A76A65",
"E. c #A5776B",
"W. c #B87C74",
"Q. c #B0746C",
"!. c #895760",
"~. c #C85056",
"^. c #D1744A",
"/. c #EF7546",
"(. c #CB6E6E",
"). c #D65552",
"_. c #CF833F",
"`. c #E3803D",
"'. c #BA8451",
"]. c #928474",
"[. c #B98579",
"{. c #AB8675",
"}. c #DA8747",
"|. c #CA9558",
" X c #D79556",
".X c #CC8A4D",
"XX c #E88848",
"oX c #F68B49",
"OX c #E9944C",
"+X c #F49C4D",
"@X c #F7964C",
"#X c #E89B55",
"$X c #F59C53",
"%X c #FB9D52",
"&X c #F69552",
"*X c #EF8A53",
"=X c #FAA14E",
"-X c #ECA55B",
";X c #FBA353",
":X c #F4A45A",
">X c #FBAB5B",
",X c #F8A757",
"<X c #FBB15C",
"1X c #C6867A",
"2X c #CC966E",
"3X c #D9A668",
"4X c #DAAA74",
"5X c #E9A966",
"6X c #F8AB64",
"7X c #F7B469",
"8X c #E9B675",
"9X c #F4B876",
"0X c #ECAD74",
"qX c #DEA15D",
"wX c #F0C17D",
"eX c #616088",
"rX c #A17F82",
"tX c #888985",
"yX c #B98B83",
"uX c #AD948D",
"iX c #B6ADAA",
"pX c #ABA194",
"aX c #C78B86",
"sX c #C8968A",
"dX c #D5988A",
"fX c #CA9D93",
"gX c #D49B93",
"hX c #E29D92",
"jX c #CCA498",
"kX c #D7A699",
"lX c #CDA582",
"zX c #E3AB9A",
"xX c #E8B68F",
"cX c #D5ABA3",
"vX c #DAB5A7",
"bX c #DCBAB4",
"nX c #E6B9A7",
"mX c #E6B3A7",
"MX c #D99CA1",
"NX c #EEC386",
"BX c #EBC3AD",
"VX c #E4C4B3",
"CX c #ECC6B3",
"ZX c #ECCAB6",
"AX c #ECCDBB",
"SX c #E7C7BB",
"DX c #F0CBB9",
"FX c #EDD1BE",
"GX c #F1D0BE",
"HX c #DFC3B5",
"JX c #ECCEC1",
"KX c #EDD3C3",
"LX c #EDD5C9",
"PX c #F2D6C8",
"IX c #F2DBD5",
"UX c #F4E2D6",
/* pixels */
"q S s p 3 d !  .p 3.o.&.~ s ! ^ d ( ~ O.3.| } X.~ ] .. .~ W ^ O.) [ / %.eX:. . .%.[ ( +.3.%.%.o.$.&.+.X.$.%.@. . .:.~ | %.=.%.~ ",
"* h h i [ 3 d 2 k 2 ) ) ^ d 2 - H d k | o.*.:.^ ^ _ ~ ` _ _ ~ W ^ ! ' | =.&.O.#.+.@. .O.+.$.o. .eXX.$.} $.....$.%.%. ...| } ^ } ",
"i , p 3 3 p d d d l / 2 ! 3 ) ! / d s  .d / / ^ 3.4.~ 3.:.J J z @.J ,.~ ~ / +.+.eX] +...[ +.(  . . .$.} } | | %.%. .X. .| %.-.} ",
"> , 2 ! / k 3 d l d - 3 h 3 s d s ( ! / ^ | ^ ~ } 3.J j + c c + o @ : y @.~ | ) ..[ +.-. .+.+. .+.o.} } ..} ..$.] >.&.:.| %.| ..",
"> , 2 ! / d 2 i l ) 2 2 ! 3 3 / ! ( [ { l ` W f J 4 ; @ + + + + + + 0 r y #.] -.~ (  .~ | { +.+.&.%.X.%.$. .| ..| .. ...} X.X.} ",
"2 3 i s 2 3 $.:.~ d 2 / ) l 3 ! ` ( s ) / s ` ,.c y r @ @ @ + c @ y y ;.T.Z :.{ ~ ~ ( | } X.| X.$.[ X.[ X. .+.`  .+.$.X.X.~ ~ ( ",
"p 2 [ d 2 p 3 d 2 [ p 3 6 2 d ! / 2 / ..! Q J 0 0 u Z Z u # I H.R.H.I.jXR y # z ] ~ | ~ Q _  .] ( o.%.|  .] ~ ~  . .[ [ [ [ ] $.",
"> > 2 2 2 > p 2 s 2 / 2 / ) ) 3 ) ! $.d ! ,.t I R Q.1X4XdXdXdXvXBXBXmXdXQ.R.y J ,.) [ ] [ %.] ] ( 3. .( [ | [ | X.|  . .( | $.] ",
"F F F y l l l h h l h +./ k / k l g a d s J y R.1X(.aX2XzXzXzXzXnXnXZXBXBXU.R.r K ` { ` ( ) / ] %.+.o.^ X.( ( ..[ |  .X.] ( ! +.",
";.@.l 4.S >.O.#.%.&.>.>.#.#.#.O.O.O.K O.;.y L.sXsXaXdXzXzXzXBXnXBXZXPXFXBXZXnXH.J ` [ ( / ( Q ] [ ( ( ~ ~ | / | | ~ | ( [ [ ] ( ",
"2 l h j l S h F @.O.F O.O.#.F F #.4.>.O.;.1.E.fXdXsX1XdXzXzXnXzXxXzXnXZXZXBXZX[.E >.( ~ [ / ~ _ ! ^ [ ) / ( [ ( | ~ ] ..Q ~ ( ' ",
"4 ! ' 2 2 3 e i a q ) ' / / / ` ' l l k ;.{.yXkXsXaXdXzXmXnXnXdXzXnXBXBXDXGXGX[.[.2.#.&.&.&.>.&.&.>.&.&.&.%.+.%.+.+.[ ) / / ~ ] ",
"w > > & * i / i i q 5 p p a a a ! p 5 4 !.uXfXvXaXaXgXsXzXnXnXnXnXJXZXFXCXZXFXfXsX2.O.#.>.#.#.&.>.4.>.4.&.4.#.>.4.>.>.4.>.&.&.@.",
"w > > Q g i > > - j t w i 4 6 Q ] - 5 5 J.cXbXkXaXE.H.K.E.kXzXmXkXzXkXgXnXDXDXPXvX2.x 3.{ ! ! ` +./ / $.+.{ ' +.+.z @.@.&.@.&.%.",
"f s i = * 4 > 3 > z i , =.{ ! i p i 6 6 T.vXkXuXZ P Z u U L.zXnXK.r.I A H.yXAXPXnXT.5 7 6 f Q Q ! Q ! _ _ _ _ ] Q ~ f 6 Q { 3.` ",
"4 5 i i q i =.- * p d d ! f 6 - - g 5 5.E.vXvXyXE.K o @ 1 Y.zXJX1X@ y ;.T.VXSXGXZXT.g Q Q 6 s 6 a z g ! Q _ | 6 6 7 f Q Q s f f ",
"g g i f 5 4 6.q - - 2 - - 5 Q - 5 s - Y.mXmXgXK.Q.K.L.G H.sXhXPXnXR.A.aXdXR.ZXZXCXkXiX6 5 6 6 Q s $.g .._ ! f s 6 ! f Q ..Q 6 g ",
"q = * % % * * 1 , 1 , > - > 3 2 d p 3 gXcXmXsX1XdX1X(.I.(.fXhXbXDXnXhX2XBXBXDXGXCXUXP.Q Q Q Q f 6 ! 7 5 W Q 7 ] ] Q f Q Q Q f g ",
"S 1 1 1 , t 3 , 2 , l < p * > 2 i h , mXL.bXkXdXzXzXhXW.sXaXmXJXPXDXnXmXzXCXGXGXGXUXmX! _ Q ~ Q 6 5 6 7 6 ^ s | _ ! 6 Q Q ! =.3.",
"G Y P 1 U G G L G S B A G G S H D F H cXY vXbXgXkXmXkXK.vXaXgXIXPXhXmXCXAXPXIXPXGXhXZXf f 6 2 s ^ 6 f ! ^ f 7 7 7 7 6 g ] 8 =.=.",
"G G G N G G G G U 1 N G Z G N L G U H cX1XuXbXnXvXkXK.L.Y.U Y.yXR.mX(.nXKXLXLXIXVXdXPXF F J ) l l d d / k p g 6 Q - - s 6 7 d s ",
"G G Y 1 U G H G L 1 1 *.B H N G U L F *.mXW.VXvXsX(.A R.1.l J.L.zXDXDXaXnXAXIXLXaXUXuXS L #.S *.#.L *.F #.K D *.S #.K D K D H F ",
"Y G G 1 G G G G G N 1 G S A N G G G H G gXE.jXsX1XU U U 1.aXaXgX[.aXdXaXmXKXIXVXSXLXF Z K K S K S S P K L K D D S #.#.D H K #.H ",
"b B B N H Z H G G O.N L N H L P G G L G #.T.gXW.gXI.A G U A.K.R.aXbX1XdXnXJXKXbXIXuXZ D H L l A S D H S P L K K Z D F S F L L P ",
"& , t e > % < ; , < 1 t 1 : , 1 1 0 1 t 1 2.jXsXkXW.L.K.W.MXMXMXcXMXkXI.DXZXFXvXK u #.H Z L L H A Z G G P L P P Z L Z S S P L L ",
": K L D > % & < & % , 9 q = * > f 4 = % = 4 jXuXE.1XsXsXsXQ.aXgXbXPXDXzXDXGXKXjX/ , , h h h t h l l y l S S S F F Z D l Z D P L ",
"@ L O.U C < = = % % % 9 t 4 = % % % = % * * T.[.[.gXgX1XW.L.A U.zXZXKXZXBXbXSXx 4 * = 4 4 = ! ! > p a i a ' J e * 5 * - - * > i ",
"> Z 1 L.1 @ 8 & % % & * w % % * * * % * = 4 ;.T.I.[.fXkXdXkXgXzXCXnXDXGXFXSXjX4 i i - 4 * * q 4 = * * 4 a #.E q - q = 4 = - = = ",
"& r u Y & * r . & < > % & * * % < = * , % * T.<.2.E.vXgXaXkXdXkXJXKXGXjXvXpXCX* z x 8 q > * - 5 = i * 5 6 <.J.a D i s x = - - * ",
"& , 4 #.& % 4 % = % % : % > ; ; * < & * ; * T.cX<.Z 2.yXI.Q.[.{.kXcXcXuXuXZXPX= i * s 5 Z ` p > i * * > * q q i k i d W * i { * ",
"' { { # a t y a = % l +.3 ' { j ` z / j +.> E.kX1XsXR Z K 1.P 1.E.2.<.yXbXPXPXi , 1 Z q t , q t t e * : = * i z = a a 5 = s j > ",
"< p & < z j y Z y * . + @.: * * w u > > 0 r uXkXsXsXfX{.E u r J 2.E.vXZXKXPXKXJ t 1 , k p :.:.h :.J ' j @.' a a ' a ' q > - F w ",
"d = % _ i e y D Z 0 < & ; @ , ..: , > w w q jXkX[.[.yXkXsX[.R L.fXZXSXVXFXKXFXw z :.i i { 6 g Z q 1 l w 9 q t h y ; * j u > , % ",
"g - * e & z x b Z ; t j % j > p 1 : & g z =.jXkXsX[.yXvXkX1X1XmXPXFXKXAXZXFXFX:.:.>.w A 1 u l p ; ; w p q z 3 & w g { z : q & > ",
"X ; ; & ; % X B 0 0 0 9 %   ; % @ w l J I C vXlXaX{.[.kXjX1XfXnXAXKXKXZXZXAXKXfXN w $.i Z ; q a 9 : t q ' ` q ; u { r * , z w 0 ",
". & & & + & < . w w 1 y t % = < + % +.4X7XkXvXcXaX[.[.fXjXsXyXkXLXJXJXCXVXFXFXZXtX~.1.1 < > p ; S 0 1 , w w w > 1 : ; 4 1 r , , ",
", < h e l e u w ,.0 : @ u u . * A J.7X7X2XbXvXjXjX[.1XjXjX{.R.aXvXZXZXZXFXFXKXFXJXU e.A.K.q q t l 9 p > : : 0 r ' z D ` , @ u & ",
"1 @ ; J h w { e & q X X y u r '.9X%X>X;X2XvXvXjXjXkXyXjXjX[.Q.dXVXSXHXVXAXFXFXFXJX1 h.s.e.S.Y.0 & q ! q > ; # 0 i t 0 +.& ; # , ",
"T @ > 1   : 0 :.@ r : w < W.9X6X%X%X7X:X<XvXvXfXjXjXkXsXsXsXsXvXHXFXBXVXFXFXZXAXT.~.z.0.w.w.s.S.P.*.) w ; q ` 1 & ,.j > % > e * ",
"Z + X N c w b @ A 4   J.9X6X%X%X%X%X%X6X<XwXjXkXjXjXjXsXsX[.sXcXVXVXvXVXVXVXHXSX!.D.y.y.7.7.9.w.s.S.P.1.3 t ` 1 > z 9 ; ; = * z ",
"> . 1 O + @ < % # Z 9X6X%X%X;X;X%X%X=X;X=X<X>XkXlXkXjXfXfXsXfXkXvXBXkXnXVXVXnX5.y.y.9.0.7.7.0.9.t.a.a.D.~.L.N % , ; q 9 , X : 0 ",
"J 1 @ + @ @ ; @ xX7X;X;X%X>X;X;X%X;X;X<X;X=XNX0 ;.jXsXjXkXsXsX[.lXnXvXvXnXvX  o T.v.q.a.h.a.0.9.y.j.h.j.D.D.~.Y.` t I I > j J 0 ",
"+ u : r b N 9X9X7X6X=X7X>X>X;X;X;X;X=X=X+X6Xc e c 9 4 . + 2.E.E.{.{.<.. .     o   $ p.i.d.h.d.t.h.f.d.x.a.D.j.D.~.#.J ;.y u @ 0 ",
"1 @ 1 t lX9X7X6X<X,X<X<X>X6X6X6X;X<X;X>X=X+ X X c . . 4 X c . e e c       X X X     @ x.x.f.d.f.g.h.f.a.d.d.d.f.x.~.K j c + 3.u ",
"@ r z {.wX<X>X;X,X>X,X;X=X;X;X%X6X>X>X,X0 i 9   9 . . c X 4 . %   4 . &     X &     o ;.v.x.c.x.d.c.c.d.j.h.g.j.k.G.~.z y r e q ",
". { . 8XwX7X7X>X;X,X>X;X;X>X<X=X>X;X;X1.9 9 9 c 9 & 4 . c E ].S.P.P.P.r.2.  X o         *.v.v.i.d.f.g.f.F.h.D.z.D.h.D.Y.t J j Z ",
"+ % xXwX9XwX9X7X>X7X,X;X;X;X;X%X;X=XNX9 9 9 9 9 4X5X<X=X=X=X9Xn.n.n.n.n.q.q.(.P.G X o   X A c.p.g.d.F.D.F.d.h.x.G.b.h.~.+ T P V ",
"  @ NX9XwX8X9XoX<X9X7X>X;X<X>X>X>XNXc c 4 uX6X>X=X=X;X@X@XoX6Xc.n.b.c.c.v.i.h.i.v.f.Y.(.V   o v.f.q.g.z.z.a.D.h.b.D.h.b.L.=.# ,.",
": 2X8X8XwX8X<X@X@X,X7X7X<X;X+X=X9X: J xX;X@X<X>X;X@X<X%X%XoX6Xn.F.c.c.b.z.p.i.v.i.v.c.f.v.a.~.o G.x.x.D.x.0.S.9.h.D.v.S.A.%.< ) ",
"@ 8X8X8X8XwX,X5X=XXXOX7X;X+X7X-Xu 6X>X=X=X>X;X6X,X;X%X%X%X%X9Xc.z.z.x.f.c.z.v.c.c.c.d.f.0.v.9.(.Y v.q.f.h.7.0.t.h.x.S.d.A.S T y ",
"].8X5X5X5XwX-XNXoX$X:X9X%X@X;X8X7X%X%X%X7X=X=X%XoX@X;X%X>X%X0Xx.f.c.g.z.p.c.n.c.t.sXbXV q.d.z.z.q.(.g.D.d.M 8.0.V q.D.d.e.:.N J ",
"4X3X5X5X5X:X/.8XXX$X+X7XoX6X-X@X;X7X7X6X>X%X%XoX&X;XoX%XoX%X9Xd.F.z.i.g.z.n.f.K.v.I.yX{.vXfXF.b.q.f.1XD.d.n m 8.m S.a.q.j.tX@ J ",
"4X3XqX8X8X-X/.8X/.#X$X-XoX-X6X<X:X:X%X/.oX/.&X&X%X>X&XoXoXoX6Xv.c.f.i.z.c.F.c.9Xs.z 4 @ r.E.g.b.q.d.z.~.j.n M s.S.n d.j.j._ ,.u ",
"3X3X3XqX}.OX8X5X-X-X@X+X5XoX7X8X$XZ./.oX&XoX,X<X7X%XoX&X;XoX6Xc.F.c.F.F.p.v.v.m.x <.wXc . m.b.i.d.x.D.d.t.C 7.s.f.A.h.a.r.bXtXc ",
"|..X4X XC.OX#X X5X/.6X-X*X5X8Xu./.+X@X+X>X>X,X,X>XoXoX%XoXoX;XF.g.p.g.y.i.p.n.J.g NXc ].X U x.z.x.x.0.l.s.M l.m a.t.s.t.w.w.pX@ ",
"2X|. X3X5X#XOXu./.-X#X8X7X#XV.<X6X#X>X;X;X;X+X6X&X&X&X%X%XoXoXg.p.0.g.b.c.v.v.=.4 e.8XD.    z.b.z.y.a.v P.7.l.e.b w.s.a.k.V s.Z ",
"3X|..X3X XXX_.^./.5X5X5Xl.7X-X2X+X=X=X+X0XI [.,X&X&X$XoX&X&X:Xq.c.b.z.g.p.p.v.e A.+ c 4X4   z.g.9.i.k.7.w.7.b 8.r.V w.S.t.M r.1 ",
"'.'.'.'.M.^.}.-XZ.).XX'.XX-X5X;.{.R @ @ xX=X@X@X:X@X+X&X&X$X+Xg.x.g.z.z.i.g.z.;.D.5.pX:.I.  v.0.y.a.s.w.$ A C M 7.Y w.B w.b 5.D ",
"'.'._._..X|.^.C.|.Z.r.OX5X-X#X#.:.{.OX+X@XOX+X=X,X:X+X-X&X@X+Xi.g.i.x.F.g.d.p.s.r.wXo ].s.X y.d.i.y.w.M O # v C # 8.7.C 7.v V H ",
"].pXpX_.C.B.C.}.(.^. X3X3XOXOXOX-X#X+XOX=X+X-XOX$XoXoX*X$X&X=Xi.b.i.f.i.g.g.d.f.+ P.y.D.& A.y.9.a.t.t.e.o $ O m m M n r.V O 8.r.",
"I.].pX'.^.N.w.V.).M.^.^.qX-X#X5XOX-X#X+X$X`.OX#XOX+XXX&X*X+X+Xa.i.y.y.i.i.b.b.g.i.= =   1 a.a.d.w.y.t.o $ o m o 7.V $ V b b V ].",
"B.N.N.pXN.N.'.'.V.Q.h.3X}. X#X XOX#X}.OXOX+XOXOXXX&XXXOX$X@XXXy.i.y.d.d.k.y.d.d.t.y.t.t.y.k.a.7.w.7.w.$ o v v v M O V V $ ,.5.1 ",
"T.H.pXT.N.N.N.u.M.V.M.|.}.|.}. X X#X#XOXOXOXOXXXOX/.XX*XXXOXXXa.a.t.t.t.y.a.t.t.9.9.9.9.9.t.7.9.7.l.7.o v $ o m M $ V b $ tX5.C ",
"B.].tX5.5.{._.N.9.V.B..X|.|. X}.qXqX XOX}.XX/.}.OXXXXXXX#XOXXXt.t.h.d.d.9.y.9.7.9.9.7.9.8.8.t.7.9.7.M o $ $ Y m b b n O O b C M "
};
