/* XPM */
static char *_bb2e310d06248afa649fed7b06df719iFfAwN3Jkma981LK[] = {
/* columns rows colors chars-per-pixel */
"64 64 119 2 ",
"   c #000000",
".  c #0A0907",
"X  c #0C0C0C",
"o  c #100F0D",
"O  c #0E0E10",
"+  c #151515",
"@  c #1C1C1B",
"#  c #21211F",
"$  c #242424",
"%  c #282725",
"&  c #292927",
"*  c #2B2B2B",
"=  c #333332",
"-  c #383735",
";  c #383836",
":  c #3D3C3C",
">  c #42413F",
",  c #434343",
"<  c #494745",
"1  c #494947",
"2  c #4C4C4C",
"3  c #53524F",
"4  c #535353",
"5  c #595856",
"6  c #5C5C5B",
"7  c #61615F",
"8  c #646463",
"9  c #686866",
"0  c #6B6B6B",
"q  c #72716F",
"w  c #747474",
"e  c #7D7C7C",
"r  c #82817F",
"t  c #848384",
"y  c #8D8D8D",
"u  c #92918F",
"i  c #939393",
"p  c #989896",
"a  c #9D9C9C",
"s  c #A09E9F",
"d  c #A19FA0",
"f  c #A3A3A3",
"g  c #A8A6A7",
"h  c #ABABAB",
"j  c #B4B4B4",
"k  c #BBBBBB",
"l  c #C1C0BE",
"z  c #C0C0C0",
"x  c gray76",
"c  c #C4C3C1",
"v  c gray76",
"b  c #C8C7C5",
"n  c #CAC9C7",
"m  c #C7C9C8",
"M  c gray79",
"N  c #CBCBCB",
"B  c #CECDCB",
"V  c #CDCDCD",
"C  c #CECECE",
"Z  c gray81",
"A  c #CCCCCC",
"S  c #D1CFD0",
"D  c gray82",
"F  c #D3D3D1",
"G  c #D2D2D2",
"H  c gray83",
"J  c #D8D8D8",
"K  c gray85",
"L  c #DCDCDA",
"P  c #DDDDDD",
"I  c gainsboro",
"U  c #E0DFDD",
"Y  c #E1E1E1",
"T  c #E2E2E2",
"R  c gray89",
"E  c #E4E4E2",
"W  c #E4E4E4",
"Q  c #E6E6E4",
"!  c #E6E6E6",
"~  c #E7E7E7",
"^  c #E7E7E7",
"/  c gray91",
"(  c #E9E9E9",
")  c #EBEBE9",
"_  c #EAEAEA",
"`  c gray92",
"'  c #EDEDEB",
"]  c #EAEAEC",
"[  c #ECECEC",
"{  c gray93",
"}  c #EEEEEC",
"|  c #EEEEEE",
" . c #EEEEEE",
".. c gray94",
"X. c #F1F1F1",
"o. c #F1F3F0",
"O. c gray95",
"+. c #F3F3F3",
"@. c #F4F4F2",
"#. c #F4F4F4",
"$. c #F6F6F6",
"%. c gray97",
"&. c #F4F4F4",
"*. c #F6F8F7",
"=. c #F8F8F8",
"-. c #F9F9F9",
";. c #F9FBFA",
":. c gray98",
">. c #FBFBFB",
",. c #FCFCFA",
"<. c gray99",
"1. c #FDFDFD",
"2. c #FFFFFD",
"3. c #FEFEFE",
"4. c #FEFEFF",
"5. c #FFFEFF",
"6. c #FEFFFF",
"7. c white",
"8. c #FEFEFE",
/* pixels */
"                                                                                                                                ",
"                                                                                                                                ",
"                                                                                                                                ",
"                                                                                                                                ",
"                                                                                                                                ",
"                                                                                                                                ",
"                                                                                                                                ",
"                                                                                                                                ",
"                                                                                                                                ",
"                                                                                                                                ",
"                                                                                                                                ",
"                                                    O                     X                                                     ",
"                                                    : 4                 3 :                                                     ",
"                                                    2 ] 2 : 9     9 : 1 ] 2                                                     ",
"                                                    9 4.%.O.=     = O.%.4.0                                                     ",
"                                                : M 4.4.4.k         k 4.4.4.M ,                                                 ",
"                                            *       w 4.O.:.5     4 :.+.4.w       *                                             ",
"                                    , $   : a       5 H $ * w     w * # H 5       f :   $ ,                                     ",
"                                    : ^ k ! e       , &                 & 1       e ! j ^ :                                     ",
"                                      h 4.4.Y t @         $ 1 6 6 2 $         @ t Y 4.4.h                                       ",
"                                    + D 4.4.! g ,     1 s / 4.4.4.4.( a 1     , g ! 4.4.C +                                     ",
"                                  . e t p 4.+     $ k 4.4.4.4.4.4.4.4.4.4.k $     + 4.p t e .                                   ",
"                                        . C     5 %.4.4.4.4.4.4.4.4.4.4.4.4.%.5     C .                                         ",
"                                          =   2 o.4.4.4.4.4.4.4.4.4.4.4.4.4.4.O.2   =                                           ",
"                                            , [ 4.4.4.4.4.) a 0 9 p ! 4.4.4.4.4.) >                                             ",
"                                          X ! 4.4.4.4.4.E *         # H 4.4.4.4.4./ X                                           ",
"                                          u 4.4.4.4.4.) ;   o 6 7 +   % L 4.4.4.4.4.u                                           ",
"                                        $ :.4.4.4.4.4.e   # E 4.4.[ =   7 4.4.4.4.4.:.$                                         ",
"                                        t 4.4.4.4.4.4.>   e 4.4.4.4.p   * 4.4.4.4.4.4.t                                         ",
"                                      $ / 4.4.4.4.4.4.;   u 4.4.4.4.) c n 4.4.4.4.4.4.! $                                       ",
"                                      0 4.4.4.4.4.4.4.7   1 4.4.4.4.4.4.4.4.4.4.4.4.4.4.0                                       ",
"                                      j 4.4.4.4.4.4.4.k o   0 k k S =.4.4.4.4.4.4.4.4.4.j                                       ",
"                                    X Y 4.4.4.4.4.4.4.m =           X 5 k 4.4.4.4.4.4.4.Y X                                     ",
"                                    $ =.4.4.4.4.4.4.i                     e ;.4.4.4.4.4.=.$                                     ",
"                                    , 4.4.4.4.4.@.9     = s D 7 .   . $ .   s 4.4.4.4.4.4.>                                     ",
"                                    6 4.4.4.4.4.w   . i @.4.4.4.h %   @ 1 0 ,.4.4.4.4.4.4.6                                     ",
"                                    0 4.4.4.4.H X   0 4.4.4.4.4.4.E 2   . k 4.4.4.4.4.4.4.0                                     ",
"                                    q 4.4.4.4.0   & :.4.4.4.4.4.4.4.4.t   @ o.4.4.4.4.4.4.0                                     ",
"                                    0 4.4.4.%.@   g ) %.4.=.( :.( :.[ ,.8   r ( ( 4.4.4.4.0                                     ",
"                                    6 4.4.4.J . + - + l P e t 9 0 p t 4.p   . + + x 4.4.4.5                                     ",
"                                    , 4.4.4.k   $ @   [ >.i w 8 0 f w 4.d         p 4.4.4.,                                     ",
"                                    $ :.4.4.k   $ @   @.4.O.Y %.Y %.( 4.@.X o *   i 4.4.:.$                                     ",
"                                    X Y 4.4.D   @ %   b 4.4.4.4.4.4.4.4.U   @ $   j 4.4.Y X                                     ",
"                                      j 4.4.O.@   5   5 *.4.4.4.4.4.4.,.w   3 . + ! 4.4.j                                       ",
"                                      w 4.4.4.4   - + . u 4.4.4.4.4.4.f X X ,   : ,.4.4.w                                       ",
"                                      % ( 4.4.l .   1 .   8 B ( ) H q .   2 .   h 4.4.( $                                       ",
"                                        y 4.4.4.6   . 3 +     @ + .   X 4 X   1 :.4.4.y                                         ",
"                                        $ ,.4.4.! -   . : > #     @ > > X   % P 4.4.,.$                                         ",
"                                          p 4.4.4.=.7       $ : > &       3 O.4.4.4.p                                           ",
"                                          + [ 4.4.4.4.f -             * y 4.4.4.4.] +                                           ",
"                                            1 [ 4.4.4.4.=.C a t t p M %.4.4.4.4.[ 1                                             ",
"                                              4 @.4.4.4.4.4.4.4.4.4.4.4.4.4.4.O.4                                               ",
"                                                0 =.4.4.4.4.4.4.4.4.4.4.4.4.:.0                                                 ",
"                                                  * c 4.4.4.4.4.4.4.4.4.4.x &                                                   ",
"                                                      4 x %.4.4.4.4.=.x 4                                                       ",
"                                                        . $ 2 9 9 2 $ .                                                         ",
"                                                                                                                                ",
"                                                                                                                                ",
"                                                                                                                                ",
"                                                                                                                                ",
"                                                                                                                                ",
"                                                                                                                                ",
"                                                                                                                                ",
"                                                                                                                                "
};
